<?xml version="1.0" encoding="UTF-8"?>
<svg width="267px" height="89px" viewBox="0 0 267 89" version="1.1" xmlns="http://www.w3.org/2000/svg" xmlns:xlink="http://www.w3.org/1999/xlink">
    <title>logo</title>
    <defs>
        <polygon id="path-1" points="0.06 0.513 9.821 0.513 9.821 8.525 0.06 8.525"></polygon>
        <polygon id="path-3" points="0.125 0.177 115.414 0.177 115.414 58.94 0.125 58.94"></polygon>
    </defs>
    <g id="logo" stroke="none" stroke-width="1" fill="none" fill-rule="evenodd">
        <path d="M19.665,46.543 C19.564,46.897 19.498,47.26 19.458,47.628 C14.663,48.864 9.726,50.267 4.568,51.865 C9.382,49.838 14.434,48.07 19.665,46.543" id="Fill-1" fill="#D1742D"></path>
        <path d="M8.489,40.89 C9.273,40.56 10.07,40.245 10.867,39.929 C10.934,39.988 11,40.044 11.067,40.104 C10.211,40.363 9.358,40.619 8.489,40.89" id="Fill-2" fill="#D1742D"></path>
        <path d="M118.239,36.79 C118.42,36.511 118.63,36.198 118.849,35.894 C123.083,36.739 127.252,37.697 131.323,38.777 C126.79,38.051 122.444,37.39 118.239,36.79" id="Fill-3" fill="#D1742D"></path>
        <path d="M49.653,29.127 C38.256,30.518 26.674,33.02 13.886,36.806 C13.9,36.671 13.912,36.535 13.937,36.415 C24.976,32.269 37.112,29.475 49.762,27.936 C49.746,28.105 49.706,28.543 49.653,29.127" id="Fill-4" fill="#D1742D"></path>
        <path d="M101.545,33.149 C106.54,33.743 111.487,34.493 116.348,35.404 C116.216,35.841 116.089,36.203 115.988,36.474 C111.044,35.786 106.309,35.192 101.741,34.697 C101.672,34.137 101.607,33.619 101.545,33.149" id="Fill-5" fill="#D1742D"></path>
        <path d="M34.902,46.693 C34.824,46.708 34.746,46.723 34.668,46.738 C34.139,46.594 33.432,46.092 32.654,45.833 C33.404,45.68 34.153,45.526 34.908,45.382 C34.903,45.837 34.9,46.276 34.902,46.693" id="Fill-6" fill="#D1742D"></path>
        <path d="M58.884,25.67 C47.748,26.472 36.674,28.305 24.716,31.346 C24.732,31.156 24.746,30.834 24.764,30.405 C35.527,27.306 47.083,25.355 58.957,24.478 C58.933,24.852 58.908,25.251 58.884,25.67" id="Fill-7" fill="#D1742D"></path>
        <path d="M51.621,18.655 C51.645,18.319 51.678,17.941 51.72,17.537 C66.494,15.815 81.973,15.931 97.146,17.71 C98.204,18.311 99.019,18.907 99.264,19.093 C82.192,17.137 67.108,16.816 51.621,18.655" id="Fill-8" fill="#D1742D"></path>
        <path d="M51.909,16.06 C51.965,15.698 52.029,15.328 52.102,14.951 C65.343,13.418 79.161,13.41 92.824,14.764 C92.797,15.103 92.713,15.461 92.568,15.835 C78.341,14.51 65.287,14.466 51.909,16.06" id="Fill-9" fill="#D1742D"></path>
        <path d="M44.157,22.244 C44.29,21.806 44.435,21.406 44.592,21.044 C46.843,20.689 49.114,20.382 51.403,20.115 C51.449,20.191 51.504,20.263 51.548,20.342 C51.548,20.342 51.548,20.246 51.551,20.095 C54.186,19.79 56.838,19.53 59.512,19.337 C59.444,19.6 59.376,19.979 59.308,20.493 C54.281,20.856 49.259,21.43 44.157,22.244" id="Fill-10" fill="#D1742D"></path>
        <path d="M24.628,31.369 C22.546,31.899 20.44,32.461 18.299,33.066 C18.295,32.85 18.295,32.641 18.302,32.445 C20.149,31.812 22.009,31.196 23.91,30.636 C24.167,30.869 24.409,31.114 24.628,31.369" id="Fill-11" fill="#D1742D"></path>
        <path d="M50.263,18.824 C48.67,19.026 47.071,19.251 45.465,19.499 C46.187,18.567 47.017,18.121 47.842,18.042 C47.844,18.042 47.846,18.042 47.848,18.042 C48.703,17.961 49.549,18.271 50.263,18.824" id="Fill-12" fill="#D1742D"></path>
        <path d="M42.866,25.001 C41.385,25.244 39.896,25.51 38.399,25.793 C38.59,25.298 38.973,24.8 39.473,24.451 C40.166,24.321 40.869,24.21 41.567,24.088 C42.001,24.228 42.441,24.524 42.866,25.001" id="Fill-13" fill="#D1742D"></path>
        <path d="M120.171,34.559 C120.194,34.557 120.215,34.562 120.235,34.568 C120.213,34.564 120.193,34.562 120.171,34.559" id="Fill-14" fill="#D1742D"></path>
        <path d="M20.978,43.72 C20.783,44.023 20.541,44.434 20.299,44.923 C15.547,46.147 10.655,47.537 5.548,49.122 C10.462,47.052 15.629,45.26 20.978,43.72" id="Fill-15" fill="#D1742D"></path>
        <path d="M35.054,40.333 C35.037,40.756 35.02,41.185 35.005,41.616 C32.822,42.031 30.621,42.484 28.394,42.979 C28.365,42.959 28.332,42.938 28.305,42.918 C27.744,42.509 27.259,42.277 26.868,42.145 C29.559,41.481 32.288,40.875 35.054,40.333" id="Fill-16" fill="#D1742D"></path>
        <path d="M101.408,29.551 L101.828,28.24 C106.866,28.877 111.849,29.682 116.749,30.653 C116.824,30.944 116.866,31.251 116.889,31.565 C111.502,30.777 106.361,30.104 101.408,29.551" id="Fill-17" fill="#D1742D"></path>
        <path d="M34.964,42.857 C34.95,43.296 34.939,43.731 34.929,44.159 C33.502,44.428 32.065,44.714 30.62,45.016 C30.381,44.584 30.082,44.233 29.76,43.951 C31.482,43.565 33.214,43.196 34.964,42.857" id="Fill-18" fill="#D1742D"></path>
        <path d="M79.714,4.657 C80.427,4.185 81.422,3.891 82.773,3.922 C83.102,3.941 83.43,3.96 83.759,3.981 C84.7,4.124 85.636,4.469 86.458,5.03 C84.194,4.863 81.949,4.744 79.714,4.657" id="Fill-19" fill="#D1742D"></path>
        <path d="M122.622,29.507 C124.181,29.872 125.738,30.238 127.274,30.636 C127.285,30.655 127.297,30.674 127.309,30.694 C125.622,30.415 123.963,30.148 122.323,29.889 C122.418,29.753 122.518,29.625 122.622,29.507" id="Fill-20" fill="#D1742D"></path>
        <path d="M49.32,33.039 C49.284,33.511 49.254,33.942 49.232,34.3 C49.107,34.315 48.982,34.328 48.856,34.343 C46.772,34.227 43.38,34.238 40.486,34.315 C43.399,33.82 46.347,33.399 49.32,33.039" id="Fill-21" fill="#D1742D"></path>
        <path d="M49.533,30.476 C49.498,30.878 49.462,31.297 49.427,31.716 C38.111,33.088 26.625,35.544 13.966,39.242 C13.957,39.086 13.947,38.926 13.936,38.76 C24.931,34.728 36.991,31.999 49.533,30.476" id="Fill-22" fill="#D1742D"></path>
        <path d="M35.109,39.066 C26.077,40.806 16.717,43.212 6.529,46.377 C15.382,42.649 25.042,39.814 35.168,37.808 C35.148,38.211 35.128,38.63 35.109,39.066" id="Fill-23" fill="#D1742D"></path>
        <path d="M35.233,36.513 C28.45,37.833 21.469,39.541 14.095,41.665 C14.087,41.486 14.079,41.306 14.068,41.09 C20.801,38.685 27.923,36.758 35.298,35.278 C35.278,35.637 35.257,36.052 35.233,36.513" id="Fill-24" fill="#D1742D"></path>
        <path d="M101.405,32.105 C101.313,31.418 101.239,30.91 101.197,30.622 C106.482,31.258 111.71,32.078 116.845,33.075 C116.806,33.406 116.757,33.733 116.693,34.049 C111.37,33.288 106.299,32.641 101.405,32.105" id="Fill-25" fill="#D1742D"></path>
        <path d="M13.018,41.978 C11.204,42.507 9.375,43.053 7.509,43.633 C9.193,42.924 10.914,42.259 12.653,41.615 C12.776,41.736 12.899,41.858 13.018,41.978" id="Fill-26" fill="#D1742D"></path>
        <path d="M25.516,42.49 L24.775,43.812 C24.482,43.881 24.186,43.955 23.892,44.026 L22.061,43.415 C23.205,43.095 24.356,42.786 25.516,42.49" id="Fill-27" fill="#D1742D"></path>
        <path d="M120.328,34.582 C120.445,34.419 120.557,34.165 120.672,33.855 C123.335,34.423 125.967,35.04 128.566,35.703 C128.569,35.755 128.572,35.807 128.573,35.858 C125.761,35.409 123.011,34.981 120.328,34.582" id="Fill-28" fill="#D1742D"></path>
        <path d="M121.232,32.215 C121.301,32.016 121.373,31.815 121.451,31.614 C123.746,32.125 126.013,32.679 128.259,33.261 C128.264,33.283 128.268,33.306 128.272,33.329 C125.876,32.938 123.532,32.567 121.232,32.215" id="Fill-29" fill="#D1742D"></path>
        <path d="M124.722,39.544 C127.334,40.13 129.915,40.761 132.458,41.438 C130.43,41.117 128.448,40.812 126.489,40.515 C125.944,40.056 125.354,39.692 124.722,39.544" id="Fill-30" fill="#D1742D"></path>
        <path d="M67.168,22.674 C67.168,22.335 67.168,21.92 67.168,21.484 C70.076,21.39 72.996,21.37 75.922,21.401 C72.447,21.79 68.886,22.257 67.369,22.67 C67.302,22.672 67.235,22.672 67.168,22.674" id="Fill-31" fill="#D1742D"></path>
        <path d="M101.86,35.673 C109.531,36.573 117.085,37.844 124.396,39.474 C123.929,39.441 123.56,39.664 123.274,40.032 C115.747,38.921 108.718,38.002 102.045,37.286 C101.983,36.725 101.92,36.185 101.86,35.673" id="Fill-32" fill="#D1742D"></path>
        <path d="M110.626,27.322 C110.626,27.322 111.315,26.992 115.039,28.574 C115.219,28.65 115.37,28.749 115.521,28.849 C110.28,28.079 105.273,27.425 100.437,26.888 C99.486,26.438 98.182,25.826 96.684,25.143 C101.384,25.64 106.045,26.295 110.653,27.089 C110.642,27.168 110.639,27.24 110.626,27.322" id="Fill-33" fill="#D1742D"></path>
        <path d="M58.263,5.162 C59.256,4.596 60.468,4.184 62.077,3.905 C63.374,3.829 64.673,3.753 65.978,3.707 C66.601,3.867 67.202,4.176 67.777,4.59 C64.611,4.683 61.443,4.882 58.263,5.162" id="Fill-34" fill="#D1742D"></path>
        <path d="M22.274,29.498 C21.07,29.821 19.858,30.156 18.635,30.504 C18.744,30.219 18.879,29.986 19.031,29.79 C19.729,29.549 20.443,29.329 21.149,29.099 C21.518,29.172 21.896,29.308 22.274,29.498" id="Fill-35" fill="#D1742D"></path>
        <path d="M67.168,20.091 C67.168,19.581 67.168,19.157 67.168,18.936 C81.438,18.481 96.005,19.592 110.03,22.081 C110.193,22.372 110.336,22.703 110.454,23.079 C94.589,20.818 80.699,19.709 67.168,20.091" id="Fill-36" fill="#D1742D"></path>
        <path d="M110.769,25.646 C104.623,24.786 98.783,24.097 93.151,23.592 C91.6,22.961 90.029,22.394 88.652,21.925 C96.093,22.453 103.491,23.37 110.744,24.652 C110.769,24.962 110.777,25.294 110.769,25.646" id="Fill-37" fill="#D1742D"></path>
        <path d="M43.602,24.876 C43.659,24.466 43.722,24.07 43.796,23.702 C48.829,22.896 53.956,22.296 59.153,21.915 C59.12,22.268 59.087,22.66 59.055,23.085 C53.925,23.456 48.804,24.043 43.602,24.876" id="Fill-38" fill="#D1742D"></path>
        <path d="M117.875,46.835 C113.959,46.316 110.16,45.844 106.491,45.433 C106.419,45.13 106.225,44.472 105.778,43.606 C110.238,44.166 114.65,44.842 118.991,45.639 C118.554,45.989 118.173,46.391 117.875,46.835" id="Fill-39" fill="#D1742D"></path>
        <path d="M102.794,39.924 C102.617,39.77 102.468,39.615 102.275,39.462 C102.232,39.029 102.188,38.607 102.143,38.193 C109.096,38.996 115.948,40.104 122.613,41.499 C122.527,41.809 122.46,42.123 122.409,42.418 C115.488,41.423 108.984,40.587 102.794,39.924" id="Fill-40" fill="#D1742D"></path>
        <path d="M120.485,44.662 C115.19,43.928 110.136,43.287 105.282,42.748 C104.912,42.166 104.413,41.53 103.801,40.88 C110.059,41.63 116.231,42.617 122.249,43.84 C122.249,43.85 122.248,43.868 122.248,43.868 C122.248,43.868 121.442,44.146 120.485,44.662" id="Fill-41" fill="#D1742D"></path>
        <path d="M32.203,19.531 C30.482,19.929 28.74,20.359 26.984,20.812 C27.364,20.292 27.811,19.873 28.338,19.593 C28.797,19.463 29.261,19.343 29.723,19.217 C30.62,19.137 31.448,19.255 32.203,19.531" id="Fill-42" fill="#D1742D"></path>
        <path d="M72.759,11.821 C72.813,11.631 72.898,11.428 72.986,11.224 C79.193,11.228 85.438,11.551 91.659,12.15 C92.041,12.45 92.355,12.829 92.563,13.274 C78.586,11.945 65.674,11.902 52.438,13.463 C52.539,13.08 52.654,12.701 52.779,12.326 C59.251,11.594 65.864,11.241 72.531,11.229 C72.615,11.436 72.692,11.634 72.759,11.821" id="Fill-43" fill="#D1742D"></path>
        <path d="M71.819,9.706 C65.662,9.734 59.558,10.084 53.392,10.789 C53.584,10.385 53.797,10.003 54.03,9.648 C59.688,9.043 65.453,8.745 71.265,8.701 C71.464,9.04 71.648,9.375 71.819,9.706" id="Fill-44" fill="#D1742D"></path>
        <path d="M35.011,21.42 C31.956,22.071 28.852,22.811 25.689,23.634 C25.784,23.309 25.889,22.994 26.005,22.687 C28.646,21.903 31.352,21.218 34.088,20.583 C34.417,20.839 34.72,21.125 35.011,21.42" id="Fill-45" fill="#D1742D"></path>
        <path d="M37.439,24.836 C37.646,25.23 37.811,25.581 37.944,25.878 C33.673,26.695 29.324,27.674 24.852,28.824 C24.873,28.529 24.899,28.221 24.929,27.899 C28.991,26.711 33.17,25.692 37.439,24.836" id="Fill-46" fill="#D1742D"></path>
        <path d="M36.065,22.642 C36.302,22.959 36.514,23.276 36.714,23.59 C32.927,24.351 29.071,25.243 25.123,26.267 C25.168,25.961 25.222,25.652 25.28,25.343 C28.786,24.305 32.399,23.426 36.065,22.642" id="Fill-47" fill="#D1742D"></path>
        <path d="M77.942,7.195 C78.022,6.906 78.133,6.585 78.305,6.244 C81.586,6.348 84.872,6.535 88.159,6.812 C88.345,7.114 88.507,7.441 88.643,7.794 C85.03,7.497 81.468,7.297 77.942,7.195" id="Fill-48" fill="#D1742D"></path>
        <path d="M101.156,14.225 C101.509,13.765 101.909,13.456 102.362,13.45 C102.364,13.45 102.367,13.451 102.37,13.451 C102.721,13.503 103.068,13.57 103.417,13.625 C104.029,13.812 104.633,14.175 105.183,14.769 C103.833,14.582 102.482,14.393 101.156,14.225" id="Fill-49" fill="#D1742D"></path>
        <path d="M100.006,16.627 C100.114,16.301 100.236,15.972 100.37,15.651 C102.357,15.923 104.332,16.227 106.304,16.556 C106.43,16.844 106.545,17.156 106.653,17.491 C104.403,17.177 102.188,16.889 100.006,16.627" id="Fill-50" fill="#D1742D"></path>
        <path d="M70.241,7.135 C65.227,7.206 60.234,7.483 55.2,8.012 C55.501,7.619 55.801,7.254 56.109,6.917 C60.513,6.498 64.975,6.253 69.476,6.179 C69.741,6.486 69.999,6.803 70.241,7.135" id="Fill-51" fill="#D1742D"></path>
        <path d="M99.358,19.104 C99.383,18.973 99.465,18.569 99.6,18.03 C102.094,18.353 104.575,18.72 107.045,19.131 C107.101,19.448 107.163,19.75 107.202,20.098 C104.537,19.73 101.925,19.399 99.358,19.104" id="Fill-52" fill="#D1742D"></path>
        <path d="M73.909,9.687 C74.181,9.333 74.482,8.999 74.812,8.696 C79.543,8.751 84.295,8.991 89.042,9.398 C89.083,9.72 89.111,10.054 89.113,10.406 C83.948,9.98 78.896,9.722 73.909,9.687" id="Fill-53" fill="#D1742D"></path>
        <path d="M31.479,72.332 C30.756,71.218 30.334,69.922 30.334,69.922 C26.961,68.114 19.64,64.561 16.146,64.772 C20.544,66.428 26.358,69.802 29.31,72.332 C30.003,72.362 31.479,72.332 31.479,72.332" id="Fill-54" fill="#6D9C41"></path>
        <path d="M29.009,65.192 L29.34,67.422 C27.714,66.367 25.093,64.741 23.195,64.319 C24.852,64.259 27.653,64.65 29.009,65.192" id="Fill-55" fill="#6D9C41"></path>
        <path d="M26.268,73.013 C24.099,71.007 17.411,66.608 10.574,65.675 C13.977,67.211 20.665,70.916 23.195,73.446 C24.219,73.326 25.695,73.061 26.268,73.013" id="Fill-56" fill="#6D9C41"></path>
        <path d="M20.665,74.23 C18.014,72.001 10.544,67.633 4.639,67.211 C8.766,68.747 14.007,71.368 17.713,75.043 C19.068,74.561 20.665,74.23 20.665,74.23" id="Fill-57" fill="#6D9C41"></path>
        <path d="M15.182,75.856 C12.863,73.597 5.031,69.892 0.904,68.898 C2.752,70.299 10.805,75.02 12.582,76.736 C13.486,76.345 15.182,75.856 15.182,75.856" id="Fill-58" fill="#6D9C41"></path>
        <g id="Group-62" transform="translate(0.000000, 72.000000)">
            <mask id="mask-2" fill="white">
                <use xlink:href="#path-1"></use>
            </mask>
            <g id="Clip-60"></g>
            <path d="M9.821,5.904 C7.907,4.098 3.501,1.205 0.335,0.513 C0.301,0.663 5.663,4.519 7.501,6.658 C8.375,6.417 9.821,5.904 9.821,5.904" id="Fill-59" fill="#6D9C41" mask="url(#mask-2)"></path>
            <path d="M4.639,7.592 C3.284,5.904 1.567,5.092 0,4.579 C-0.03,4.82 1.778,7.351 2.47,8.525 C3.434,8.134 4.639,7.592 4.639,7.592" id="Fill-61" fill="#6D9C41" mask="url(#mask-2)"></path>
        </g>
        <path d="M117.692,63.597 C115.131,63.445 111.342,64.161 109.264,65.487 C109.083,66.029 108.602,68.194 108.602,68.194 C110.543,66.482 114.498,64.259 117.692,63.597" id="Fill-63" fill="#6D9C41"></path>
        <path d="M107.455,72.286 C111.221,68.46 115.765,64.628 124.862,65.11 C120.103,66.194 114.323,68.244 110.679,72.87 C109.534,72.708 107.455,72.286 107.455,72.286" id="Fill-64" fill="#6D9C41"></path>
        <path d="M114.16,73.847 C117.926,70.022 123.226,66.269 132.323,66.75 C127.564,67.835 120.848,70.067 117.202,74.693 C115.723,74.224 114.16,73.847 114.16,73.847" id="Fill-65" fill="#6D9C41"></path>
        <path d="M120.312,75.465 C124.077,71.639 129.501,68.414 138.599,68.897 C133.839,69.981 126.627,71.884 122.631,76.309 C121.152,75.838 120.312,75.465 120.312,75.465" id="Fill-66" fill="#6D9C41"></path>
        <path d="M125.342,77.302 C128.716,74.802 134.383,72.693 138.599,72.241 C134.075,74.156 129.982,76.579 128.083,78.236 C127.03,77.904 125.885,77.362 125.342,77.302" id="Fill-67" fill="#6D9C41"></path>
        <path d="M131.608,79.351 C133.807,77.724 136.096,76.79 137.814,76.519 C137.723,76.76 134.138,79.803 133.867,80.254 C132.873,79.923 131.94,79.501 131.608,79.351" id="Fill-68" fill="#6D9C41"></path>
        <path d="M115.422,52.849 C115.853,53.325 115.966,54.481 115.036,55.41 C113.971,54.504 114.13,53.439 115.422,52.849 Z M115.039,56.703 C116.379,56.839 116.692,57.429 116.578,58.403 C114.923,58.426 114.905,57.11 115.039,56.703 Z M125.103,51.738 C125.942,51.738 126.576,52.667 126.123,53.823 C124.899,53.552 124.581,52.577 125.103,51.738 Z M129.75,48.813 C129.932,50.06 128.957,50.491 127.983,50.831 C127.438,49.402 128.504,48.473 129.75,48.813 Z M130.657,53.211 C130.34,54.096 129.637,54.571 128.458,54.571 C128.163,52.758 129.592,52.508 130.657,53.211 Z M130.045,56.793 C130,57.134 130.589,58.268 128.798,58.539 C128.254,57.882 128.844,56.68 130.045,56.793 Z M131.769,60.059 C131.61,58.788 132.902,58.381 133.718,59.129 C133.582,59.514 132.97,60.104 131.769,60.059 Z M109.003,60.814 C115.472,60.844 131.613,64.259 138.505,66.708 C139.594,66.496 140.017,65.227 140.108,64.44 C139.443,64.139 138.626,63.957 138.324,63.987 C139.624,62.839 139.291,61.024 138.868,60.179 C137.84,60.359 136.601,61.509 136.39,62.264 C136.269,61.69 135.996,61.368 135.996,61.368 C135.996,61.368 135.09,61.327 134.787,61.659 C134.818,60.965 134.787,60.692 134.636,60.481 C135.695,59.539 135.846,58.637 135.755,58.032 C134.999,57.67 134.697,57.609 134.122,57.609 C134.364,56.37 133.851,55.796 133.73,55.554 C132.762,55.614 131.947,55.856 131.281,56.31 C131.553,55.584 131.704,55.04 131.704,55.04 C131.704,55.04 131.735,54.616 131.462,54.405 C132.521,53.71 132.551,52.773 132.551,52.047 C131.856,51.533 130.979,51.17 130.314,51.322 C131.371,49.629 131.191,47.574 130.888,46.636 C129.528,46.395 128.742,46.848 128.349,47.604 C127.956,46.092 126.867,45.548 125.87,45.307 C125.024,45.881 124.601,46.939 124.555,47.785 C123.422,46.848 122.545,47.09 121.609,47.271 C121.215,48.39 121.366,49.871 122.183,50.778 C120.489,50.687 120.218,51.624 119.824,52.017 C120.188,53.105 121.064,54.012 122.001,54.284 C120.036,54.042 119.794,54.193 119.402,54.284 C118.918,54.828 118.434,55.07 118.405,55.523 C117.89,55.19 117.406,54.737 116.923,54.828 C117.195,52.712 116.47,51.896 115.865,51.201 C114.414,51.382 113.78,51.896 113.507,52.591 C112.54,51.775 111.935,51.896 111.24,51.896 C110.697,53.075 111.15,54.436 111.694,55.463 C110.333,54.677 110.03,54.768 109.517,54.646 C108.852,55.402 108.822,55.856 108.822,55.856 C108.822,55.856 109.185,58.093 109.003,60.814 L109.003,60.814 Z" id="Fill-69" fill="#6D9C41"></path>
        <path d="M8.313,57.796 C9.3,58.191 9.779,59.657 8.905,61.012 C7.777,60.307 7.325,58.727 8.313,57.796 Z M12.486,59.686 C12.712,60.25 12.515,60.955 11.584,61.368 C10.822,60.822 11.386,59.573 12.486,59.686 Z M18.55,54.835 C19.256,54.947 19.961,55.398 19.763,56.979 C18.155,56.896 18.071,55.794 18.55,54.835 Z M18.804,58.529 C19.904,57.993 20.412,58.671 20.665,59.771 C19.649,60.137 18.663,59.573 18.804,58.529 Z M25.488,55.146 C26.645,55.229 26.842,56.302 26.523,56.979 C25.582,57.007 25.037,56.189 25.488,55.146 Z M27.153,53.951 C25.911,53.802 25.488,53.058 26.024,51.803 C27.265,51.93 27.434,52.748 27.153,53.951 Z M27.378,50.604 C25.986,49.476 26.447,48.489 27.66,47.812 C28.563,48.433 28.563,49.646 27.378,50.604 Z M30.17,50.604 C30.734,51.337 30.65,52.099 29.522,53.001 C28.224,51.845 28.704,50.802 30.17,50.604 Z M0.335,64.954 C0.728,65.559 1.756,66.254 1.756,66.254 C8.799,63.715 21.041,62.342 28.99,62.681 C28.9,59.12 29.897,55.311 32.467,52.349 C32.225,51.533 31.741,51.141 31.741,51.141 C32.316,50.022 32.134,49.176 31.59,48.48 C30.774,48.631 30.199,48.917 29.988,49.212 C29.414,47.06 28.93,46.606 27.903,45.851 C26.723,46.425 25.907,47.029 25.575,47.997 C24.577,46.878 23.731,46.818 23.006,46.909 C22.522,48.39 23.247,50.445 23.943,51.382 C22.189,51.05 21.645,51.503 21.645,51.503 C21.434,52.894 21.917,54.646 22.371,55.493 C22.129,55.554 20.889,55.433 20.889,55.433 C20.527,53.589 19.439,52.078 18.592,51.503 C17.897,51.836 17.534,52.501 17.444,53.256 C16.537,52.712 15.902,52.652 15.237,52.652 C14.753,53.831 15.207,54.949 15.932,55.705 C14.783,56.067 14.39,57.246 14.39,57.246 C14.844,57.972 15.72,58.97 16.174,59.09 C14.995,59.211 14.028,60.662 14.028,60.662 C13.786,59.06 13.302,58.396 12.909,57.851 C12.124,57.941 11.368,58.455 11.066,59.06 C10.551,57.67 8.949,56.34 7.619,55.946 C6.985,56.611 6.592,57.64 6.622,58.485 C5.383,57.972 4.446,58.063 3.811,58.184 C3.539,59 3.75,60.209 4.597,61.176 C2.995,60.844 2.148,61.167 1.756,61.368 C1.574,62.415 1.786,63.171 2.39,63.866 C1.363,63.866 0.335,64.954 0.335,64.954 L0.335,64.954 Z" id="Fill-70" fill="#6D9C41"></path>
        <path d="M34.901,62.681 C34.901,60.251 35.579,58.031 36.695,56.27 C37.557,56.227 38.301,56.31 38.301,56.31 C37.122,58.909 37.261,60.959 37.406,61.887 C37.754,64.099 39.455,66.769 42.143,66.799 C44.83,66.828 45.858,65.899 46.764,64.762 C46.734,66.254 45.404,69.035 42.563,68.884 C41.505,68.823 39.767,68.238 38.921,67.422 C39.767,69.561 41.661,70.4 43.472,70.396 C44.747,70.392 46.648,69.53 47.952,67.62 C48.203,68.435 48.532,69.214 48.897,69.967 C47.413,71.839 45.374,73.013 43.107,73.013 C38.575,73.013 34.901,68.387 34.901,62.681 Z M47.709,73.405 C48.43,72.821 49.085,72.139 49.664,71.37 C50.08,72.048 50.527,72.698 51.027,73.281 C49.888,73.316 48.793,73.36 47.709,73.405 Z M49.993,63.001 L48.523,62.927 L48.464,62.176 L49.993,62.176 L49.993,63.001 Z M50.662,58.692 L50.493,59.369 L48.878,59.369 L49.007,58.692 C49.007,58.692 50.566,58.678 50.662,58.692 Z M51.661,55.464 L51.413,56.141 L49.622,56.038 L49.98,55.332 C49.98,55.332 51.578,55.435 51.661,55.464 Z M52.767,51.223 L53.561,50.606 C53.561,50.606 55.633,50.655 55.724,50.655 L54.961,51.29 L52.767,51.223 Z M53.399,52.724 L52.958,53.488 L50.927,53.43 L51.452,52.724 L53.399,52.724 Z M40.819,60.27 C41.745,60.396 46.014,60.396 47.404,60.392 C47.322,60.946 47.267,61.494 47.238,62.029 C45.777,61.852 40.084,61.368 40.084,61.368 C40.084,61.368 39.71,60.118 40.819,60.27 Z M51.548,62.237 C51.548,55.873 55.333,50.676 60.121,50.247 C58.773,49.517 54.903,49.102 52.962,50.205 C51.043,51.295 49.479,53.587 48.478,56.231 L39.419,55.675 C39.661,55.281 40.054,55.07 40.054,55.07 L47.46,54.798 C46.229,54.271 40.585,54.036 38.709,53.972 C38.717,53.965 38.724,53.957 38.732,53.951 L38.724,53.946 L38.724,52.319 C38.724,52.319 44.497,52.319 46.976,52.259 C47.097,50.989 47.157,40.41 47.429,38.445 C58.281,38.536 80.227,42.556 85.637,43.705 C81.459,46.8 79.94,51.473 79.514,55.323 L72.061,54.634 L71.759,53.427 C71.759,53.427 74.509,53.279 77.074,53.464 C77.074,53.464 77.587,46.492 77.587,45.083 C75.324,44.564 59.489,42.301 49.364,41.56 L49.327,41.989 C49.327,41.989 71.134,45.305 75.547,46.158 L75.51,46.826 C75.51,46.826 69.279,46.047 66.127,45.936 L66.053,46.752 C66.053,46.752 74.06,48.239 75.481,48.843 L66.016,47.976 L65.942,48.792 C65.942,48.792 73.873,49.961 75.208,50.517 L62.493,49.867 L62.418,50.411 C66.711,51.433 69.967,56.334 69.967,62.237 C69.967,68.883 65.844,74.27 60.757,74.27 C55.671,74.27 51.548,68.883 51.548,62.237 Z M67.168,51.775 L67.168,50.929 C67.168,50.929 74.151,51.715 75.345,51.926 C72.246,52.107 67.168,51.775 67.168,51.775 Z M67.757,73.019 C68.607,72.197 69.41,71.245 69.967,70.339 C69.967,70.339 71.175,72.031 72.647,73.023 C71.38,73.01 70.093,73.006 68.786,73.013 C68.437,73.014 68.103,73.017 67.757,73.019 Z M73.244,59.539 L73.697,56.521 C73.697,56.521 77.476,56.944 77.445,56.854 C77.415,56.763 76.659,59.539 76.659,59.539 L73.244,59.539 Z M73.244,63.581 C74.634,65.196 76.025,66.466 77.838,66.405 C79.379,66.355 80.258,64.574 80.49,64.036 C80.805,64.927 81.16,65.741 81.526,66.499 C80.635,68.173 79.192,68.218 78.353,68.189 C77.476,68.158 74.12,67.316 73.244,63.581 Z M80.528,73.225 C81.837,72.461 82.768,71.586 83.532,70.19 C84.595,71.947 85.421,72.774 86.226,73.526 C84.139,73.382 82.755,73.317 80.528,73.225 Z M85.897,60.396 L85.897,61.368 L82.365,61.368 L82.365,60.396 C82.365,60.396 85.792,60.396 85.897,60.396 Z M82.104,56.769 L82.273,55.736 L86.159,55.736 L85.889,56.769 L82.104,56.769 Z M86.946,53.032 L83.048,53.032 L83.467,51.888 L87.313,51.888 L86.946,53.032 Z M84.778,49.418 L85.478,48.264 C85.478,48.264 89.708,48.264 89.848,48.264 L88.903,49.418 L84.778,49.418 Z M82.627,28.9 L82.447,30.341 C81.067,30.071 76.594,29.621 73.111,29.881 C74.612,29.06 78.935,28.66 82.627,28.9 Z M77.912,32.801 C78.41,33.622 77.789,35.851 77.474,36.805 C74.792,36.458 71.761,36.105 71.761,36.105 C71.731,35.955 72.271,33.787 72.271,33.787 C73.875,33.385 75.915,33.032 77.912,32.801 Z M79.226,37.04 L80.44,32.581 C81.082,32.545 81.704,32.522 82.267,32.529 C82.238,33.043 82.207,34.094 82.387,34.364 C80.977,34.424 80.526,36.345 80.616,37.246 C80.24,37.185 79.759,37.114 79.226,37.04 Z M45.797,38.838 C45.797,38.838 45.465,45.064 45.253,49.033 C44.83,47.529 44.467,38.989 44.467,38.989 L45.797,38.838 Z M43.472,39.018 C43.472,39.018 43.14,45.245 42.928,49.212 C42.505,47.71 42.143,39.169 42.143,39.169 L43.472,39.018 Z M41.148,39.144 C41.148,39.144 40.815,45.37 40.604,49.338 C40.18,47.835 39.818,39.294 39.818,39.294 L41.148,39.144 Z M37.406,53.679 L36.686,54.531 L34.672,54.531 L35.657,53.619 L37.406,53.679 Z M35.333,56.648 C35.304,56.605 34.848,57.457 34.848,57.457 L33.172,57.457 L33.499,56.707 L35.333,56.648 Z M32.43,59.399 L34.062,59.325 L33.856,60.163 C33.856,60.163 32.298,60.179 32.282,60.163 C32.268,60.148 32.43,59.399 32.43,59.399 Z M32.142,62.324 C32.142,62.324 33.319,62.295 33.392,62.324 L33.392,63.001 L32.142,63.001 L32.142,62.324 Z M1.687,84.02 C30.961,76.04 53.51,75.824 81.212,76.549 C101.636,77.083 123.322,81.44 136.439,85.205 C132.915,83.157 121.138,77.661 99.278,74.798 C99.854,74.678 100.363,74.533 100.751,74.356 C103.592,73.056 107.885,68.189 107.129,59.06 C107,57.508 106.742,56.102 105.985,54.738 C106.334,56.176 106.534,57.717 106.534,59.33 C106.534,66.9 102.341,73.037 97.169,73.037 C91.996,73.037 87.803,66.9 87.803,59.33 C87.803,53.534 90.264,48.591 93.736,46.586 L86.65,46.586 C86.65,46.586 87.051,45.816 88.091,45.307 C91.997,44.867 97.86,45.661 97.86,45.661 L97.837,45.668 C99.943,45.888 101.853,47.123 103.346,49.045 C103.804,49.022 104.318,49.012 104.965,49.034 C104.089,46.907 103.193,45.752 102.716,45.216 C100.479,44.067 96.156,43.312 92.227,42.979 C92.227,42.979 91.864,41.71 91.653,41.256 C93.134,41.316 98.333,42.042 102.716,43.13 C101.872,42.555 100.822,42.08 99.689,41.683 C99.535,39.257 99.266,35.131 98.717,33.343 C98.692,35.379 98.526,40.183 98.486,41.299 C98.267,41.235 98.047,41.173 97.826,41.114 C97.722,39.731 97.233,33.269 97.169,32.653 C97.097,31.962 96.736,31.872 95.836,31.542 C94.935,31.212 86.8,28.9 86.8,28.9 L86.65,39.347 C87.04,38.266 87.641,32.833 87.641,32.833 C90.012,32.413 96.076,32.833 96.076,32.833 L96.105,33.217 C94.043,33.159 89.136,33.928 88.091,34.364 C90.88,34.339 94.901,34.356 96.192,34.361 L96.683,40.828 C94.32,40.28 92.028,39.978 90.745,39.775 C90.745,39.775 87.753,40.077 84.882,40.349 C84.882,40.349 84.882,31.19 85.002,28.47 C81.315,27.17 77.234,27.26 72.76,27.533 C72.76,27.533 73.032,26.807 73.244,26.263 C74.967,25.991 79.863,25.598 83.975,26.535 C88.086,27.472 99.451,30.888 99.451,30.888 C99.451,30.888 99.361,30.465 99.239,30.253 C97.124,29.377 86.906,25.931 82.705,24.842 C82.705,24.842 83.128,24.056 83.415,23.784 C84.217,23.845 94.282,26.626 97.577,27.563 C94.373,25.87 84.67,22.968 83.975,22.727 C81.133,22.787 72.699,23.724 70.191,24.479 C69.707,25.356 69.344,26.716 69.254,27.019 C69.888,27.2 71.611,27.563 71.611,27.563 C71.037,30.193 69.737,37.236 69.737,37.236 C72.759,37.568 79.985,39.2 82.463,40.44 C81.532,40.397 73.496,39.141 64.399,38.045 L64.78,21.547 C64.595,21.427 64.36,21.341 64.105,21.282 C64.053,23.794 63.816,34.954 63.601,36.963 C63.349,33.606 63.201,23.715 63.132,21.227 C62.724,21.259 62.337,21.35 62.09,21.547 C61.853,23.234 61.753,34.794 61.732,37.733 C59.872,37.522 57.996,37.322 56.147,37.146 L56.306,32.527 C57.22,32.535 57.988,32.408 58.1,31.674 C58.117,31.521 58.131,31.393 58.143,31.276 C57.283,30.686 55.114,29.889 53.51,29.881 C54.727,29.041 56.864,29.395 58.22,30.071 C58.22,30.013 58.22,29.952 58.22,29.881 C58.22,29.225 56.77,28.47 55.621,28.349 C54.472,28.228 52.538,28.47 52.447,29.498 C52.357,30.525 52.266,31.1 52.598,31.523 C52.823,31.809 53.398,32.112 54.136,32.304 L53.976,36.948 C47.338,36.375 41.355,36.168 38.422,36.873 C38.111,40.759 38.478,48.104 38.647,51.043 C34.215,52.576 30.777,57.44 30.777,63.139 C30.777,67.932 32.676,72.086 36.039,74.201 C22.892,75.493 8.043,80.04 1.687,84.02 L1.687,84.02 Z" id="Fill-71" fill="#64462B"></path>
        <path d="M55.657,62.662 C55.657,63.721 55.794,64.732 56.044,65.657 C55.78,62.097 57.158,56.957 60.175,57.406 C61.989,57.677 63.552,59.948 63.82,63.062 C63.986,64.985 63.563,67.095 62.05,68.876 C66.615,65.593 64.302,58.991 63.336,57.399 C65.93,59.25 67.008,67.515 62.003,70.565 C64.526,69.894 66.441,66.611 66.441,62.662 C66.441,58.229 64.027,54.634 61.049,54.634 C58.07,54.634 55.657,58.229 55.657,62.662" id="Fill-72" fill="#64462B"></path>
        <path d="M60.882,62.257 C61.945,63.752 61.04,65.53 59.85,65.486 C58.404,65.433 57.932,63.244 58.745,62.257 C58.798,63.138 59.138,64.215 59.824,64.339 C60.312,64.427 60.922,63.858 60.882,62.257" id="Fill-73" fill="#64462B"></path>
        <path d="M91.147,59.61 C91.147,60.81 91.306,61.954 91.594,63.002 C91.29,58.97 92.877,53.148 96.354,53.657 C98.444,53.963 100.244,56.536 100.553,60.062 C100.744,62.241 100.258,64.631 98.514,66.648 C103.774,62.93 101.109,55.451 99.995,53.649 C102.986,55.746 104.228,65.106 98.46,68.561 C101.366,67.802 103.573,64.083 103.573,59.61 C103.573,54.588 100.791,50.517 97.361,50.517 C93.929,50.517 91.147,54.588 91.147,59.61" id="Fill-74" fill="#64462B"></path>
        <path d="M97.169,59.15 C98.394,60.844 97.351,62.858 95.98,62.809 C94.314,62.748 93.769,60.27 94.705,59.15 C94.766,60.148 95.159,61.368 95.948,61.509 C96.511,61.608 97.213,60.965 97.169,59.15" id="Fill-75" fill="#64462B"></path>
        <polyline id="Fill-76" fill="#64462B" points="157.122 4.364 157.122 10.35 165.2 10.35 165.2 14.584 157.122 14.584 157.122 23.781 151.607 23.781 151.607 0.146 166.823 0.146 166.823 4.364 157.122 4.364"></polyline>
        <path d="M176.005,16.936 C174.999,16.979 174.172,17.065 173.524,17.195 C172.874,17.325 172.361,17.487 171.983,17.682 C171.604,17.877 171.341,18.098 171.196,18.347 C171.049,18.596 170.977,18.866 170.977,19.158 C170.977,19.731 171.133,20.134 171.447,20.367 C171.761,20.599 172.22,20.715 172.825,20.715 C173.475,20.715 174.042,20.602 174.53,20.375 C175.016,20.147 175.508,19.78 176.005,19.271 L176.005,16.936 Z M166.953,9.295 C167.97,8.397 169.097,7.73 170.336,7.292 C171.573,6.854 172.902,6.635 174.319,6.635 C175.334,6.635 176.251,6.8 177.068,7.129 C177.884,7.459 178.576,7.919 179.145,8.508 C179.712,9.098 180.148,9.798 180.45,10.609 C180.753,11.42 180.905,12.307 180.905,13.27 L180.905,23.781 L178.601,23.781 C178.125,23.781 177.766,23.716 177.522,23.586 C177.279,23.457 177.076,23.187 176.913,22.775 L176.557,21.851 C176.135,22.208 175.73,22.521 175.34,22.792 C174.951,23.062 174.548,23.292 174.132,23.481 C173.715,23.67 173.272,23.811 172.802,23.903 C172.331,23.995 171.809,24.041 171.237,24.041 C170.468,24.041 169.771,23.941 169.144,23.741 C168.516,23.541 167.984,23.246 167.545,22.856 C167.108,22.467 166.77,21.983 166.531,21.405 C166.294,20.826 166.175,20.158 166.175,19.401 C166.175,18.796 166.326,18.182 166.629,17.56 C166.932,16.938 167.456,16.371 168.202,15.857 C168.948,15.343 169.954,14.914 171.22,14.567 C172.486,14.221 174.08,14.026 176.005,13.983 L176.005,13.27 C176.005,12.286 175.803,11.574 175.397,11.136 C174.991,10.698 174.415,10.479 173.669,10.479 C173.074,10.479 172.588,10.544 172.209,10.674 C171.83,10.804 171.492,10.95 171.196,11.112 C170.898,11.274 170.609,11.42 170.327,11.55 C170.046,11.68 169.711,11.745 169.322,11.745 C168.976,11.745 168.684,11.658 168.446,11.485 C168.208,11.312 168.013,11.106 167.862,10.869 L166.953,9.295 L166.953,9.295 Z" id="Fill-77" fill="#64462B"></path>
        <path d="M188.82,9.555 C189.339,8.646 189.937,7.932 190.613,7.413 C191.288,6.894 192.065,6.635 192.941,6.635 C193.697,6.635 194.314,6.813 194.789,7.17 L194.465,10.869 C194.411,11.106 194.322,11.269 194.197,11.355 C194.073,11.442 193.903,11.485 193.687,11.485 C193.6,11.485 193.487,11.48 193.346,11.469 C193.205,11.458 193.059,11.444 192.908,11.428 C192.756,11.412 192.602,11.396 192.446,11.379 C192.288,11.363 192.146,11.355 192.016,11.355 C191.28,11.355 190.694,11.55 190.256,11.939 C189.818,12.329 189.447,12.87 189.145,13.562 L189.145,23.781 L184.115,23.781 L184.115,6.959 L187.101,6.959 C187.349,6.959 187.557,6.981 187.725,7.024 C187.893,7.067 188.033,7.135 188.147,7.227 C188.26,7.319 188.347,7.44 188.406,7.592 C188.466,7.743 188.517,7.927 188.561,8.143 L188.82,9.555" id="Fill-78" fill="#64462B"></path>
        <path d="M196.492,23.781 L196.492,6.959 L199.608,6.959 C200.235,6.959 200.646,7.24 200.84,7.803 L201.115,8.711 C201.397,8.419 201.689,8.151 201.991,7.908 C202.294,7.665 202.621,7.454 202.973,7.275 C203.324,7.097 203.703,6.957 204.109,6.854 C204.514,6.751 204.96,6.7 205.447,6.7 C206.463,6.7 207.305,6.962 207.97,7.486 C208.635,8.011 209.14,8.711 209.487,9.587 C209.768,9.068 210.111,8.625 210.517,8.257 C210.922,7.889 211.36,7.592 211.83,7.365 C212.301,7.138 212.798,6.97 213.322,6.862 C213.847,6.754 214.369,6.7 214.888,6.7 C215.851,6.7 216.705,6.843 217.451,7.129 C218.197,7.416 218.822,7.833 219.325,8.378 C219.828,8.925 220.209,9.595 220.469,10.39 C220.728,11.185 220.858,12.085 220.858,13.091 L220.858,23.781 L215.829,23.781 L215.829,13.091 C215.829,11.35 215.083,10.479 213.591,10.479 C212.909,10.479 212.344,10.704 211.896,11.152 C211.447,11.602 211.222,12.248 211.222,13.091 L211.222,23.781 L206.194,23.781 L206.194,13.091 C206.194,12.128 206.004,11.453 205.625,11.063 C205.247,10.674 204.69,10.479 203.954,10.479 C203.5,10.479 203.071,10.582 202.665,10.788 C202.26,10.993 201.878,11.269 201.522,11.615 L201.522,23.781 L196.492,23.781" id="Fill-79" fill="#64462B"></path>
        <path d="M234.565,13.351 C234.565,12.951 234.514,12.561 234.411,12.183 C234.308,11.804 234.141,11.466 233.908,11.169 C233.675,10.871 233.37,10.631 232.991,10.447 C232.613,10.263 232.154,10.171 231.613,10.171 C230.661,10.171 229.914,10.444 229.374,10.99 C228.833,11.537 228.477,12.323 228.304,13.351 L234.565,13.351 Z M228.238,16.271 C228.401,17.676 228.828,18.696 229.52,19.328 C230.212,19.961 231.105,20.277 232.197,20.277 C232.78,20.277 233.283,20.207 233.705,20.066 C234.127,19.926 234.503,19.769 234.833,19.596 C235.162,19.423 235.465,19.266 235.741,19.126 C236.017,18.985 236.306,18.915 236.61,18.915 C237.009,18.915 237.312,19.061 237.518,19.353 L238.978,21.153 C238.458,21.748 237.899,22.232 237.298,22.605 C236.698,22.978 236.082,23.27 235.449,23.481 C234.817,23.692 234.184,23.838 233.551,23.919 C232.918,24.001 232.316,24.041 231.742,24.041 C230.564,24.041 229.458,23.849 228.425,23.465 C227.392,23.081 226.489,22.511 225.716,21.753 C224.943,20.997 224.331,20.056 223.883,18.931 C223.434,17.806 223.21,16.498 223.21,15.005 C223.21,13.88 223.402,12.815 223.785,11.81 C224.169,10.804 224.721,9.922 225.441,9.165 C226.159,8.408 227.03,7.808 228.052,7.365 C229.074,6.921 230.229,6.7 231.516,6.7 C232.629,6.7 233.649,6.873 234.573,7.219 C235.498,7.565 236.293,8.068 236.958,8.727 C237.623,9.387 238.142,10.195 238.515,11.152 C238.888,12.109 239.074,13.194 239.074,14.405 C239.074,14.784 239.059,15.092 239.027,15.33 C238.993,15.567 238.934,15.757 238.848,15.897 C238.761,16.038 238.645,16.135 238.499,16.189 C238.353,16.244 238.166,16.271 237.94,16.271 L228.238,16.271 L228.238,16.271 Z" id="Fill-80" fill="#64462B"></path>
        <path d="M246.293,9.555 C246.813,8.646 247.41,7.932 248.086,7.413 C248.762,6.894 249.538,6.635 250.414,6.635 C251.171,6.635 251.787,6.813 252.263,7.17 L251.939,10.869 C251.885,11.106 251.795,11.269 251.671,11.355 C251.547,11.442 251.376,11.485 251.16,11.485 C251.073,11.485 250.96,11.48 250.82,11.469 C250.679,11.458 250.532,11.444 250.382,11.428 C250.23,11.412 250.075,11.396 249.919,11.379 C249.762,11.363 249.619,11.355 249.489,11.355 C248.754,11.355 248.167,11.55 247.73,11.939 C247.291,12.329 246.921,12.87 246.618,13.562 L246.618,23.781 L241.589,23.781 L241.589,6.959 L244.574,6.959 C244.822,6.959 245.03,6.981 245.198,7.024 C245.366,7.067 245.507,7.135 245.62,7.227 C245.734,7.319 245.821,7.44 245.88,7.592 C245.94,7.743 245.99,7.927 246.034,8.143 L246.293,9.555" id="Fill-81" fill="#64462B"></path>
        <path d="M264.656,10.642 C264.527,10.847 264.389,10.993 264.242,11.08 C264.097,11.166 263.91,11.209 263.683,11.209 C263.446,11.209 263.207,11.158 262.969,11.055 C262.732,10.953 262.475,10.842 262.198,10.723 C261.923,10.604 261.613,10.493 261.266,10.39 C260.92,10.287 260.526,10.236 260.082,10.236 C259.444,10.236 258.954,10.357 258.613,10.601 C258.273,10.844 258.103,11.182 258.103,11.615 C258.103,11.929 258.213,12.188 258.436,12.394 C258.656,12.599 258.951,12.78 259.32,12.937 C259.687,13.094 260.104,13.243 260.569,13.383 C261.033,13.523 261.509,13.681 261.996,13.854 C262.483,14.026 262.958,14.229 263.424,14.462 C263.889,14.694 264.305,14.981 264.673,15.321 C265.04,15.662 265.335,16.076 265.557,16.562 C265.779,17.049 265.89,17.633 265.89,18.315 C265.89,19.148 265.738,19.915 265.435,20.618 C265.132,21.321 264.681,21.927 264.08,22.435 C263.481,22.943 262.739,23.338 261.859,23.619 C260.977,23.9 259.963,24.041 258.817,24.041 C258.243,24.041 257.67,23.986 257.097,23.878 C256.524,23.771 255.97,23.624 255.435,23.44 C254.899,23.257 254.405,23.038 253.95,22.784 C253.495,22.53 253.107,22.256 252.782,21.964 L253.95,20.115 C254.079,19.899 254.244,19.729 254.445,19.604 C254.645,19.48 254.902,19.418 255.215,19.418 C255.507,19.418 255.77,19.482 256.002,19.612 C256.235,19.742 256.486,19.883 256.756,20.034 C257.027,20.186 257.343,20.326 257.705,20.456 C258.068,20.586 258.525,20.65 259.076,20.65 C259.465,20.65 259.795,20.61 260.066,20.529 C260.336,20.448 260.552,20.337 260.714,20.196 C260.877,20.056 260.995,19.899 261.072,19.726 C261.147,19.553 261.185,19.375 261.185,19.19 C261.185,18.855 261.072,18.58 260.844,18.363 C260.617,18.147 260.32,17.961 259.952,17.803 C259.584,17.647 259.165,17.501 258.695,17.365 C258.225,17.23 257.746,17.076 257.259,16.903 C256.773,16.73 256.294,16.522 255.823,16.279 C255.353,16.035 254.934,15.727 254.567,15.354 C254.198,14.981 253.902,14.524 253.674,13.983 C253.447,13.442 253.333,12.788 253.333,12.021 C253.333,11.307 253.472,10.628 253.747,9.984 C254.023,9.341 254.437,8.776 254.988,8.289 C255.539,7.803 256.232,7.416 257.065,7.129 C257.898,6.843 258.87,6.7 259.985,6.7 C260.59,6.7 261.177,6.754 261.744,6.862 C262.313,6.97 262.845,7.121 263.343,7.316 C263.84,7.511 264.294,7.741 264.705,8.005 C265.116,8.271 265.479,8.56 265.792,8.873 L264.656,10.642" id="Fill-82" fill="#64462B"></path>
        <polyline id="Fill-83" fill="#D1742D" points="156.405 33.967 156.405 39.035 163.244 39.035 163.244 42.619 156.405 42.619 156.405 50.405 151.737 50.405 151.737 30.397 164.617 30.397 164.617 33.967 156.405 33.967"></polyline>
        <polyline id="Fill-84" fill="#D1742D" points="171.964 33.967 171.964 38.636 178.253 38.636 178.253 42.07 171.964 42.07 171.964 46.835 180.176 46.835 180.176 50.405 167.295 50.405 167.295 30.397 180.176 30.397 180.176 33.967 171.964 33.967"></polyline>
        <polyline id="Fill-85" fill="#D1742D" points="187.701 33.967 187.701 38.636 193.99 38.636 193.99 42.07 187.701 42.07 187.701 46.835 195.913 46.835 195.913 50.405 183.032 50.405 183.032 30.397 195.913 30.397 195.913 33.967 187.701 33.967"></polyline>
        <path d="M212.172,40.394 C212.172,39.405 212.044,38.513 211.788,37.716 C211.531,36.92 211.163,36.245 210.683,35.691 C210.202,35.137 209.613,34.711 208.918,34.414 C208.222,34.116 207.43,33.967 206.542,33.967 L203.439,33.967 L203.439,46.835 L206.542,46.835 C207.43,46.835 208.222,46.686 208.918,46.389 C209.613,46.091 210.202,45.666 210.683,45.111 C211.163,44.558 211.531,43.882 211.788,43.086 C212.044,42.29 212.172,41.392 212.172,40.394 Z M216.924,40.394 C216.924,41.841 216.674,43.175 216.176,44.398 C215.676,45.62 214.974,46.677 214.068,47.569 C213.161,48.462 212.07,49.158 210.792,49.657 C209.515,50.156 208.099,50.405 206.542,50.405 L198.77,50.405 L198.77,30.397 L206.542,30.397 C208.099,30.397 209.515,30.649 210.792,31.152 C212.07,31.656 213.161,32.352 214.068,33.24 C214.974,34.127 215.676,35.183 216.176,36.405 C216.674,37.627 216.924,38.957 216.924,40.394 L216.924,40.394 Z" id="Fill-86" fill="#D1742D"></path>
        <polygon id="Fill-87" fill="#D1742D" points="219.67 50.405 224.339 50.405 224.339 30.397 219.67 30.397"></polygon>
        <path d="M245.679,30.397 L245.679,50.405 L243.262,50.405 C242.905,50.405 242.605,50.348 242.363,50.233 C242.119,50.119 241.879,49.92 241.642,49.636 L232.207,37.703 C232.243,38.06 232.269,38.405 232.282,38.739 C232.296,39.074 232.303,39.387 232.303,39.68 L232.303,50.405 L228.211,50.405 L228.211,30.397 L230.655,30.397 C230.857,30.397 231.027,30.406 231.163,30.424 C231.301,30.443 231.424,30.477 231.534,30.527 C231.644,30.578 231.749,30.649 231.85,30.74 C231.95,30.832 232.065,30.956 232.194,31.111 L241.71,43.127 C241.664,42.743 241.632,42.37 241.613,42.008 C241.596,41.647 241.586,41.305 241.586,40.985 L241.586,30.397 L245.679,30.397" id="Fill-88" fill="#D1742D"></path>
        <g id="Group-92" transform="translate(151.000000, 30.000000)">
            <mask id="mask-4" fill="white">
                <use xlink:href="#path-3"></use>
            </mask>
            <g id="Clip-90"></g>
            <path d="M108.163,10.037 L115.277,10.037 L115.277,18.483 C114.251,19.233 113.159,19.778 112.002,20.117 C110.844,20.456 109.633,20.625 108.369,20.625 C106.722,20.625 105.223,20.366 103.872,19.849 C102.522,19.332 101.366,18.618 100.405,17.707 C99.444,16.796 98.701,15.716 98.18,14.466 C97.658,13.216 97.398,11.859 97.398,10.394 C97.398,8.902 97.645,7.531 98.139,6.281 C98.633,5.032 99.34,3.954 100.261,3.047 C101.181,2.141 102.293,1.436 103.598,0.933 C104.903,0.429 106.36,0.177 107.971,0.177 C108.804,0.177 109.587,0.246 110.32,0.383 C111.052,0.521 111.727,0.709 112.345,0.946 C112.963,1.185 113.529,1.468 114.041,1.798 C114.554,2.127 115.011,2.484 115.414,2.869 L114.069,4.915 C113.858,5.235 113.585,5.432 113.251,5.505 C112.917,5.579 112.558,5.497 112.173,5.258 C111.807,5.039 111.461,4.849 111.137,4.689 C110.812,4.528 110.48,4.398 110.141,4.297 C109.802,4.196 109.446,4.123 109.07,4.077 C108.695,4.032 108.274,4.009 107.807,4.009 C106.937,4.009 106.154,4.162 105.458,4.469 C104.762,4.775 104.169,5.208 103.68,5.766 C103.19,6.325 102.813,6.996 102.547,7.778 C102.281,8.561 102.149,9.433 102.149,10.394 C102.149,11.457 102.295,12.399 102.588,13.223 C102.881,14.047 103.295,14.743 103.831,15.311 C104.366,15.878 105.007,16.311 105.753,16.608 C106.499,16.906 107.325,17.055 108.233,17.055 C108.79,17.055 109.296,17 109.749,16.89 C110.202,16.78 110.645,16.633 111.074,16.45 L111.074,13.416 L109.097,13.416 C108.804,13.416 108.575,13.338 108.41,13.182 C108.246,13.026 108.163,12.83 108.163,12.591 L108.163,10.037" id="Fill-89" fill="#D1742D" mask="url(#mask-4)"></path>
            <path d="M13.812,52.813 C14.802,52.813 15.688,52.648 16.468,52.321 C17.247,51.993 17.907,51.523 18.447,50.911 C18.986,50.299 19.398,49.552 19.682,48.67 C19.966,47.788 20.108,46.786 20.108,45.663 L20.108,26.795 L27.498,26.795 L27.498,45.663 C27.498,47.617 27.181,49.41 26.547,51.042 C25.912,52.675 25.005,54.081 23.824,55.262 C22.644,56.442 21.208,57.36 19.518,58.017 C17.826,58.672 15.925,59 13.812,59 C11.683,59 9.774,58.672 8.083,58.017 C6.392,57.36 4.956,56.442 3.777,55.262 C2.596,54.081 1.692,52.675 1.065,51.042 C0.439,49.41 0.125,47.617 0.125,45.663 L0.125,26.795 L7.515,26.795 L7.515,45.642 C7.515,46.765 7.656,47.767 7.941,48.648 C8.226,49.53 8.637,50.28 9.176,50.899 C9.715,51.519 10.375,51.993 11.155,52.321 C11.935,52.648 12.82,52.813 13.812,52.813" id="Fill-91" fill="#64462B" mask="url(#mask-4)"></path>
        </g>
        <polyline id="Fill-93" fill="#64462B" points="207.16 62.655 198.197 62.655 198.197 88.65 190.807 88.65 190.807 62.655 181.843 62.655 181.843 56.795 207.16 56.795 207.16 62.655"></polyline>
        <path d="M224.629,76.473 L221.677,67.749 C221.458,67.195 221.225,66.543 220.978,65.792 C220.73,65.042 220.482,64.23 220.235,63.355 C220.016,64.244 219.782,65.067 219.534,65.825 C219.286,66.583 219.054,67.239 218.835,67.793 L215.905,76.473 L224.629,76.473 Z M236.369,88.65 L230.641,88.65 C229.999,88.65 229.483,88.501 229.089,88.202 C228.696,87.903 228.397,87.522 228.193,87.055 L226.312,81.501 L214.199,81.501 L212.32,87.055 C212.159,87.463 211.871,87.83 211.456,88.158 C211.04,88.486 210.527,88.65 209.914,88.65 L204.143,88.65 L216.474,56.795 L224.038,56.795 L236.369,88.65 L236.369,88.65 Z" id="Fill-94" fill="#64462B"></path>
        <polyline id="Fill-95" fill="#64462B" points="266.694 56.795 266.694 88.65 259.26 88.65 259.26 75.183 246.318 75.183 246.318 88.65 238.884 88.65 238.884 56.795 246.318 56.795 246.318 70.11 259.26 70.11 259.26 56.795 266.694 56.795"></polyline>
    </g>
</svg>