<?xml version="1.0" encoding="utf-8"?>
<!-- Generator: Adobe Illustrator 23.1.1, SVG Export Plug-In . SVG Version: 6.00 Build 0)  -->
<svg version="1.1" xmlns="http://www.w3.org/2000/svg" xmlns:xlink="http://www.w3.org/1999/xlink" x="0px" y="0px"
	 viewBox="0 0 333.76 141.28" style="enable-background:new 0 0 333.76 141.28;" xml:space="preserve">
<style type="text/css">
	.st0{fill:#FFFFFF;}
	.st1{fill:#E07B1F;}
	.st2{fill:#73A31A;}
	.st3{fill:#734C28;}
</style>
<g id="Layer_2">
	<rect x="0" class="st0" width="333.76" height="141.28"/>
</g>
<g id="Layer_3">
	<g>
		<g>
			<g>
				<path class="st1" d="M50.18,69.5c-0.1,0.35-0.17,0.72-0.21,1.09c-4.79,1.24-9.73,2.64-14.89,4.24
					C39.89,72.8,44.94,71.03,50.18,69.5z"/>
				<path class="st1" d="M39,63.85c0.78-0.33,1.58-0.64,2.38-0.96c0.07,0.06,0.13,0.11,0.2,0.17C40.72,63.32,39.87,63.58,39,63.85z"
					/>
				<path class="st1" d="M148.75,59.75c0.18-0.28,0.39-0.59,0.61-0.9c4.23,0.85,8.4,1.8,12.47,2.88
					C157.3,61.01,152.95,60.35,148.75,59.75z"/>
				<path class="st1" d="M80.16,52.09c-11.4,1.39-22.98,3.89-35.77,7.68c0.01-0.13,0.03-0.27,0.05-0.39
					c11.04-4.15,23.17-6.94,35.82-8.48C80.26,51.06,80.22,51.5,80.16,52.09z"/>
				<path class="st1" d="M132.06,56.11c4.99,0.59,9.94,1.34,14.8,2.26c-0.13,0.44-0.26,0.8-0.36,1.07
					c-4.94-0.69-9.68-1.28-14.25-1.78C132.18,57.1,132.12,56.58,132.06,56.11z"/>
				<path class="st1" d="M65.41,69.65c-0.08,0.01-0.16,0.03-0.23,0.04c-0.53-0.14-1.24-0.65-2.01-0.91c0.75-0.15,1.5-0.31,2.25-0.45
					C65.41,68.8,65.41,69.24,65.41,69.65z"/>
				<path class="st1" d="M89.39,48.63c-11.14,0.8-22.21,2.63-34.17,5.68c0.02-0.19,0.03-0.51,0.05-0.94
					c10.76-3.1,22.32-5.05,34.19-5.93C89.44,47.81,89.42,48.21,89.39,48.63z"/>
				<path class="st1" d="M82.13,41.61c0.02-0.34,0.06-0.71,0.1-1.12c14.77-1.72,30.25-1.61,45.43,0.17c1.06,0.6,1.87,1.2,2.12,1.38
					C112.7,40.1,97.62,39.78,82.13,41.61z"/>
				<path class="st1" d="M82.42,39.02c0.05-0.36,0.12-0.73,0.19-1.11c13.24-1.53,27.06-1.54,40.72-0.19
					c-0.03,0.34-0.11,0.7-0.26,1.07C108.85,37.47,95.8,37.43,82.42,39.02z"/>
				<path class="st1" d="M74.67,45.2c0.13-0.44,0.28-0.84,0.43-1.2c2.25-0.35,4.52-0.66,6.81-0.93c0.05,0.08,0.1,0.15,0.14,0.23
					c0,0,0-0.1,0-0.25c2.64-0.31,5.29-0.57,7.96-0.76c-0.07,0.26-0.14,0.64-0.2,1.15C84.79,43.82,79.77,44.39,74.67,45.2z"/>
				<path class="st1" d="M55.14,54.33c-2.08,0.53-4.19,1.09-6.33,1.7c0-0.22,0-0.42,0-0.62c1.85-0.63,3.71-1.25,5.61-1.81
					C54.68,53.83,54.92,54.07,55.14,54.33z"/>
				<path class="st1" d="M80.77,41.78c-1.59,0.2-3.19,0.43-4.8,0.67c0.72-0.93,1.55-1.38,2.38-1.46c0,0,0,0,0.01,0
					C79.21,40.92,80.06,41.23,80.77,41.78z"/>
				<path class="st1" d="M73.38,47.96c-1.48,0.24-2.97,0.51-4.47,0.79c0.19-0.49,0.57-0.99,1.07-1.34c0.69-0.13,1.4-0.24,2.09-0.36
					C72.51,47.19,72.95,47.48,73.38,47.96z"/>
				<path class="st1" d="M150.68,57.52c0.02,0,0.04,0,0.06,0.01C150.72,57.52,150.7,57.52,150.68,57.52z"/>
				<path class="st1" d="M51.49,66.68c-0.19,0.3-0.44,0.71-0.68,1.2c-4.75,1.22-9.64,2.61-14.75,4.2
					C40.97,70.01,46.14,68.22,51.49,66.68z"/>
				<path class="st1" d="M65.56,63.29c-0.02,0.42-0.03,0.85-0.05,1.28c-2.18,0.42-4.38,0.87-6.61,1.36
					c-0.03-0.02-0.06-0.04-0.09-0.06c-0.56-0.41-1.05-0.64-1.44-0.77C60.07,64.44,62.8,63.83,65.56,63.29z"/>
				<path class="st1" d="M131.92,52.51l0.42-1.31c5.04,0.64,10.02,1.44,14.92,2.41c0.08,0.29,0.12,0.6,0.14,0.91
					C142.01,53.74,136.87,53.06,131.92,52.51z"/>
				<path class="st1" d="M65.47,65.82c-0.01,0.44-0.02,0.87-0.03,1.3c-1.43,0.27-2.86,0.56-4.31,0.86
					c-0.24-0.43-0.54-0.78-0.86-1.07C61.99,66.53,63.72,66.16,65.47,65.82z"/>
				<path class="st1" d="M110.22,27.62c0.71-0.47,1.71-0.77,3.06-0.73c0.33,0.02,0.66,0.04,0.99,0.06c0.94,0.14,1.88,0.49,2.7,1.05
					C114.7,27.82,112.46,27.7,110.22,27.62z"/>
				<path class="st1" d="M153.13,52.47c1.56,0.36,3.12,0.73,4.65,1.13c0.01,0.02,0.02,0.04,0.03,0.06
					c-1.69-0.28-3.35-0.55-4.99-0.81C152.93,52.71,153.03,52.58,153.13,52.47z"/>
				<path class="st1" d="M79.83,56c-0.04,0.47-0.07,0.9-0.09,1.26c-0.13,0.02-0.25,0.03-0.38,0.04c-2.08-0.12-5.48-0.1-8.37-0.03
					C73.91,56.78,76.86,56.36,79.83,56z"/>
				<path class="st1" d="M80.04,53.44c-0.04,0.4-0.07,0.82-0.11,1.24c-11.32,1.37-22.8,3.83-35.46,7.53
					c-0.01-0.16-0.02-0.32-0.03-0.48C55.44,57.69,67.5,54.96,80.04,53.44z"/>
				<path class="st1" d="M65.62,62.03c-9.03,1.74-18.39,4.15-28.58,7.31c8.85-3.73,18.51-6.56,28.64-8.57
					C65.66,61.17,65.64,61.59,65.62,62.03z"/>
				<path class="st1" d="M65.74,59.47c-6.78,1.32-13.76,3.03-21.14,5.15c-0.01-0.18-0.02-0.36-0.03-0.57
					c6.73-2.41,13.85-4.33,21.23-5.81C65.79,58.6,65.77,59.01,65.74,59.47z"/>
				<path class="st1" d="M131.92,55.07c-0.09-0.69-0.17-1.2-0.21-1.48c5.28,0.64,10.51,1.46,15.65,2.45
					c-0.04,0.33-0.09,0.66-0.15,0.97C141.88,56.25,136.81,55.6,131.92,55.07z"/>
				<path class="st1" d="M43.53,64.94c-1.81,0.53-3.64,1.08-5.51,1.66c1.68-0.71,3.41-1.37,5.14-2.02
					C43.29,64.7,43.41,64.82,43.53,64.94z"/>
				<path class="st1" d="M56.03,65.45l-0.74,1.32c-0.29,0.07-0.59,0.14-0.88,0.21l-1.83-0.61C53.72,66.05,54.87,65.75,56.03,65.45z"
					/>
				<path class="st1" d="M150.84,57.54c0.12-0.16,0.23-0.42,0.34-0.73c2.66,0.57,5.3,1.18,7.89,1.85c0,0.05,0.01,0.1,0.01,0.16
					C156.27,58.37,153.52,57.94,150.84,57.54z"/>
				<path class="st1" d="M151.74,55.17c0.07-0.2,0.14-0.4,0.22-0.6c2.29,0.51,4.56,1.06,6.81,1.65c0,0.02,0.01,0.05,0.01,0.07
					C156.39,55.9,154.04,55.53,151.74,55.17z"/>
				<path class="st1" d="M155.23,62.5c2.61,0.59,5.19,1.22,7.74,1.89c-2.03-0.32-4.01-0.63-5.97-0.92
					C156.45,63.02,155.86,62.65,155.23,62.5z"/>
				<path class="st1" d="M97.68,45.63c0-0.34,0-0.75,0-1.19c2.91-0.09,5.83-0.11,8.75-0.08c-3.47,0.39-7.04,0.86-8.55,1.27
					C97.81,45.63,97.75,45.63,97.68,45.63z"/>
				<path class="st1" d="M132.37,58.63c7.67,0.9,15.23,2.17,22.54,3.8c-0.47-0.03-0.84,0.19-1.12,0.56
					c-7.53-1.11-14.56-2.03-21.23-2.75C132.49,59.68,132.43,59.15,132.37,58.63z"/>
				<path class="st1" d="M141.14,50.28c0,0,0.69-0.33,4.41,1.25c0.18,0.08,0.33,0.17,0.48,0.27c-5.24-0.77-10.25-1.42-15.08-1.96
					c-0.95-0.45-2.26-1.06-3.75-1.74c4.7,0.5,9.36,1.15,13.97,1.95C141.15,50.13,141.15,50.2,141.14,50.28z"/>
				<path class="st1" d="M88.77,28.12c0.99-0.57,2.2-0.98,3.81-1.26c1.3-0.08,2.6-0.15,3.9-0.2c0.62,0.16,1.22,0.47,1.8,0.88
					C95.12,27.64,91.95,27.84,88.77,28.12z"/>
				<path class="st1" d="M52.78,52.46c-1.2,0.32-2.42,0.66-3.64,1.01c0.11-0.29,0.24-0.52,0.4-0.71c0.7-0.24,1.41-0.46,2.12-0.69
					C52.03,52.13,52.41,52.27,52.78,52.46z"/>
				<path class="st1" d="M97.68,43.05c0-0.51,0-0.93,0-1.16c14.27-0.45,28.84,0.66,42.86,3.14c0.16,0.29,0.31,0.62,0.42,1
					C125.1,43.78,111.21,42.67,97.68,43.05z"/>
				<path class="st1" d="M141.28,48.61c-6.15-0.86-11.99-1.55-17.62-2.05c-1.55-0.63-3.12-1.2-4.5-1.67
					c7.44,0.53,14.84,1.44,22.09,2.73C141.28,47.92,141.29,48.25,141.28,48.61z"/>
				<path class="st1" d="M74.11,47.84c0.06-0.41,0.12-0.81,0.19-1.17c5.03-0.81,10.16-1.41,15.36-1.79
					c-0.03,0.35-0.07,0.74-0.1,1.17C84.44,46.42,79.32,47,74.11,47.84z"/>
				<path class="st1" d="M148.39,69.8c-3.92-0.52-7.72-0.99-11.38-1.4c-0.07-0.3-0.27-0.96-0.71-1.83
					c4.46,0.56,8.87,1.24,13.21,2.03C149.06,68.95,148.68,69.35,148.39,69.8z"/>
				<path class="st1" d="M133.3,62.88c-0.18-0.15-0.33-0.31-0.52-0.46c-0.04-0.43-0.09-0.85-0.13-1.27
					c6.95,0.8,13.81,1.91,20.47,3.31c-0.09,0.31-0.15,0.62-0.2,0.92C146,64.38,139.49,63.55,133.3,62.88z"/>
				<path class="st1" d="M151,67.62c-5.3-0.73-10.35-1.37-15.2-1.91c-0.37-0.58-0.87-1.22-1.48-1.87
					c6.26,0.75,12.43,1.74,18.45,2.96c0,0.01,0,0.03,0,0.03S151.95,67.11,151,67.62z"/>
				<path class="st1" d="M62.71,42.49c-1.72,0.4-3.46,0.83-5.22,1.28c0.38-0.52,0.83-0.94,1.35-1.22c0.46-0.13,0.92-0.25,1.39-0.38
					C61.13,42.1,61.96,42.22,62.71,42.49z"/>
				<path class="st1" d="M103.27,34.78c0.05-0.19,0.14-0.39,0.23-0.6c6.21,0,12.45,0.33,18.67,0.93c0.38,0.3,0.7,0.68,0.9,1.12
					c-13.98-1.33-26.89-1.37-40.12,0.19c0.1-0.38,0.22-0.76,0.34-1.14c6.47-0.73,13.08-1.09,19.75-1.1
					C103.13,34.4,103.2,34.59,103.27,34.78z"/>
				<path class="st1" d="M102.33,32.67c-6.16,0.03-12.26,0.38-18.43,1.08c0.19-0.4,0.4-0.79,0.64-1.14
					c5.66-0.6,11.42-0.9,17.23-0.95C101.97,32,102.16,32.34,102.33,32.67z"/>
				<path class="st1" d="M65.52,44.38c-3.05,0.65-6.16,1.39-9.32,2.21c0.09-0.33,0.2-0.64,0.32-0.95c2.64-0.78,5.35-1.47,8.08-2.1
					C64.93,43.8,65.23,44.08,65.52,44.38z"/>
				<path class="st1" d="M67.95,47.8c0.21,0.39,0.37,0.75,0.51,1.04c-4.27,0.82-8.62,1.8-13.09,2.95c0.02-0.3,0.05-0.6,0.08-0.92
					C59.5,49.67,63.68,48.65,67.95,47.8z"/>
				<path class="st1" d="M66.58,45.6c0.24,0.32,0.45,0.63,0.65,0.95c-3.79,0.76-7.64,1.65-11.59,2.68c0.05-0.31,0.1-0.61,0.16-0.92
					C59.3,47.27,62.91,46.39,66.58,45.6z"/>
				<path class="st1" d="M108.45,30.16c0.08-0.29,0.19-0.61,0.36-0.95c3.28,0.1,6.57,0.29,9.85,0.57c0.19,0.3,0.35,0.63,0.48,0.98
					C115.54,30.46,111.98,30.26,108.45,30.16z"/>
				<path class="st1" d="M131.67,37.19c0.35-0.46,0.75-0.77,1.2-0.78c0,0,0.01,0,0.01,0c0.35,0.05,0.7,0.12,1.05,0.17
					c0.61,0.19,1.22,0.55,1.77,1.14C134.34,37.54,132.99,37.35,131.67,37.19z"/>
				<path class="st1" d="M130.52,39.59c0.11-0.33,0.23-0.66,0.36-0.98c1.99,0.27,3.96,0.58,5.93,0.9c0.13,0.29,0.24,0.6,0.35,0.94
					C134.91,40.14,132.7,39.85,130.52,39.59z"/>
				<path class="st1" d="M100.75,30.09c-5.01,0.07-10.01,0.35-15.04,0.88c0.3-0.39,0.6-0.76,0.91-1.1c4.4-0.42,8.87-0.66,13.37-0.74
					C100.25,29.45,100.51,29.76,100.75,30.09z"/>
				<path class="st1" d="M129.87,42.06c0.02-0.13,0.11-0.53,0.24-1.07c2.49,0.32,4.98,0.69,7.44,1.1c0.06,0.32,0.12,0.62,0.16,0.97
					C135.05,42.69,132.44,42.36,129.87,42.06z"/>
				<path class="st1" d="M104.42,32.65c0.27-0.35,0.57-0.69,0.9-0.99c4.73,0.05,9.48,0.29,14.23,0.7c0.04,0.32,0.07,0.66,0.07,1.01
					C114.46,32.94,109.41,32.68,104.42,32.65z"/>
			</g>
			<g>
				<g>
					<path class="st2" d="M61.99,95.29c-0.72-1.11-1.14-2.41-1.14-2.41c-3.37-1.81-10.69-5.36-14.19-5.15
						c4.4,1.66,10.21,5.03,13.16,7.56C60.51,95.32,61.99,95.29,61.99,95.29z"/>
					<path class="st2" d="M59.52,88.15l0.33,2.23c-1.63-1.05-4.25-2.68-6.15-3.1C55.36,87.22,58.16,87.61,59.52,88.15z"/>
					<path class="st2" d="M56.78,95.97c-2.17-2.01-8.86-6.4-15.69-7.34c3.4,1.54,10.09,5.24,12.62,7.77
						C54.73,96.29,56.21,96.02,56.78,95.97z"/>
					<path class="st2" d="M51.18,97.19c-2.65-2.23-10.12-6.6-16.03-7.02c4.13,1.54,9.37,4.16,13.07,7.83
						C49.58,97.52,51.18,97.19,51.18,97.19z"/>
					<path class="st2" d="M45.69,98.82c-2.32-2.26-10.15-5.96-14.28-6.96c1.85,1.4,9.9,6.12,11.68,7.84
						C44,99.31,45.69,98.82,45.69,98.82z"/>
					<path class="st2" d="M40.33,100.86c-1.91-1.81-6.32-4.7-9.49-5.39c-0.03,0.15,5.33,4.01,7.17,6.15
						C38.89,101.38,40.33,100.86,40.33,100.86z"/>
					<path class="st2" d="M35.15,102.55c-1.36-1.69-3.07-2.5-4.64-3.01c-0.03,0.24,1.78,2.77,2.47,3.95
						C33.94,103.09,35.15,102.55,35.15,102.55z"/>
					<path class="st2" d="M148.2,86.56c-2.56-0.15-6.35,0.57-8.43,1.89c-0.18,0.54-0.66,2.71-0.66,2.71
						C141.05,89.44,145.01,87.22,148.2,86.56z"/>
					<path class="st2" d="M137.97,95.25c3.77-3.83,8.31-7.66,17.41-7.18c-4.76,1.08-10.54,3.13-14.18,7.76
						C140.04,95.67,137.97,95.25,137.97,95.25z"/>
					<path class="st2" d="M144.67,96.81c3.77-3.83,9.07-7.58,18.16-7.1c-4.76,1.08-11.48,3.32-15.12,7.94
						C146.23,97.18,144.67,96.81,144.67,96.81z"/>
					<path class="st2" d="M150.82,98.42c3.77-3.83,9.19-7.05,18.29-6.57c-4.76,1.08-11.97,2.99-15.97,7.41
						C151.66,98.8,150.82,98.42,150.82,98.42z"/>
					<path class="st2" d="M155.85,100.26c3.37-2.5,9.04-4.61,13.26-5.06c-4.52,1.91-8.62,4.34-10.51,5.99
						C157.54,100.86,156.4,100.32,155.85,100.26z"/>
					<path class="st2" d="M162.12,102.31c2.2-1.63,4.49-2.56,6.21-2.83c-0.09,0.24-3.68,3.28-3.95,3.74
						C163.38,102.88,162.45,102.46,162.12,102.31z"/>
				</g>
				<path class="st2" d="M139.51,83.77c6.47,0.03,22.61,3.45,29.5,5.89c1.09-0.21,1.51-1.48,1.6-2.27c-0.67-0.3-1.48-0.48-1.78-0.45
					c1.3-1.15,0.97-2.96,0.54-3.81c-1.03,0.18-2.27,1.33-2.48,2.09c-0.12-0.57-0.39-0.9-0.39-0.9s-0.91-0.04-1.21,0.29
					c0.03-0.7,0-0.97-0.15-1.18c1.06-0.94,1.21-1.84,1.12-2.45c-0.76-0.36-1.06-0.42-1.63-0.42c0.24-1.24-0.27-1.81-0.39-2.06
					c-0.97,0.06-1.78,0.3-2.45,0.76c0.27-0.73,0.42-1.27,0.42-1.27s0.03-0.42-0.24-0.63c1.06-0.7,1.09-1.63,1.09-2.36
					c-0.7-0.51-1.57-0.88-2.24-0.73c1.06-1.69,0.88-3.75,0.57-4.69c-1.36-0.24-2.15,0.21-2.54,0.97c-0.39-1.51-1.48-2.06-2.48-2.3
					c-0.85,0.57-1.27,1.63-1.31,2.48c-1.13-0.94-2.01-0.7-2.95-0.51c-0.39,1.12-0.24,2.6,0.57,3.51c-1.69-0.09-1.96,0.85-2.36,1.24
					c0.36,1.09,1.24,2,2.18,2.27c-1.96-0.24-2.21-0.09-2.6,0c-0.48,0.54-0.97,0.79-1,1.24c-0.51-0.33-1-0.79-1.48-0.7
					c0.27-2.12-0.45-2.93-1.06-3.63c-1.45,0.18-2.09,0.7-2.36,1.39c-0.97-0.82-1.57-0.7-2.27-0.7c-0.54,1.18-0.09,2.54,0.45,3.57
					c-1.36-0.79-1.66-0.7-2.18-0.82c-0.67,0.76-0.7,1.21-0.7,1.21S139.7,81.05,139.51,83.77z M162.28,83.02
					c-0.16-1.27,1.13-1.68,1.95-0.93C164.09,82.47,163.48,83.06,162.28,83.02z M160.56,79.75c-0.05,0.34,0.54,1.47-1.25,1.75
					C158.76,80.84,159.35,79.64,160.56,79.75z M161.17,76.17c-0.32,0.88-1.02,1.36-2.2,1.36C158.67,75.72,160.1,75.47,161.17,76.17z
					 M160.26,71.77c0.18,1.25-0.79,1.68-1.77,2.02C157.95,72.36,159.01,71.43,160.26,71.77z M155.61,74.7
					c0.84,0,1.47,0.93,1.02,2.09C155.41,76.51,155.09,75.54,155.61,74.7z M145.55,79.66c1.34,0.14,1.65,0.73,1.54,1.7
					C145.43,81.39,145.42,80.07,145.55,79.66z M145.93,75.81c0.43,0.48,0.54,1.63-0.39,2.56C144.48,77.46,144.64,76.4,145.93,75.81z
					"/>
				<path class="st2" d="M30.85,87.91c0.39,0.6,1.42,1.3,1.42,1.3c7.04-2.54,19.29-3.91,27.24-3.57c-0.09-3.56,0.91-7.37,3.48-10.33
					c-0.24-0.82-0.73-1.21-0.73-1.21c0.57-1.12,0.39-1.96-0.15-2.66c-0.82,0.15-1.39,0.44-1.6,0.73c-0.57-2.15-1.06-2.61-2.09-3.36
					c-1.18,0.57-2,1.18-2.33,2.15c-1-1.12-1.84-1.18-2.57-1.09c-0.48,1.48,0.24,3.54,0.94,4.47c-1.75-0.33-2.3,0.12-2.3,0.12
					c-0.21,1.39,0.27,3.14,0.73,3.99c-0.24,0.06-1.48-0.06-1.48-0.06c-0.36-1.84-1.45-3.36-2.3-3.93c-0.7,0.33-1.06,1-1.15,1.75
					c-0.91-0.54-1.54-0.6-2.21-0.6c-0.48,1.18-0.03,2.3,0.7,3.05c-1.15,0.36-1.54,1.54-1.54,1.54c0.45,0.73,1.33,1.72,1.78,1.84
					c-1.18,0.12-2.15,1.57-2.15,1.57c-0.24-1.6-0.73-2.27-1.12-2.81c-0.79,0.09-1.54,0.6-1.84,1.21c-0.51-1.39-2.12-2.72-3.45-3.11
					c-0.63,0.67-1.03,1.69-1,2.54c-1.24-0.51-2.18-0.42-2.81-0.3c-0.27,0.82-0.06,2.03,0.79,2.99c-1.6-0.33-2.45-0.01-2.84,0.19
					c-0.18,1.05,0.03,1.8,0.63,2.5C31.87,86.83,30.85,87.91,30.85,87.91z M60.68,73.56c0.56,0.73,0.48,1.49-0.65,2.4
					C58.73,74.81,59.21,73.76,60.68,73.56z M57.89,73.56c-1.39-1.13-0.93-2.12,0.28-2.79C59.07,71.39,59.07,72.61,57.89,73.56z
					 M57.66,76.91c-1.24-0.15-1.66-0.89-1.13-2.15C57.78,74.89,57.94,75.71,57.66,76.91z M56,78.11c1.16,0.08,1.35,1.16,1.03,1.83
					C56.09,79.97,55.55,79.15,56,78.11z M49.31,81.49c1.1-0.54,1.61,0.14,1.86,1.24C50.16,83.1,49.17,82.53,49.31,81.49z
					 M49.06,77.79c0.71,0.11,1.41,0.56,1.21,2.14C48.67,79.86,48.58,78.75,49.06,77.79z M43,82.65c0.23,0.56,0.03,1.27-0.9,1.68
					C41.33,83.78,41.9,82.53,43,82.65z M38.82,80.76c0.99,0.39,1.47,1.86,0.59,3.22C38.29,83.27,37.84,81.69,38.82,80.76z"/>
			</g>
		</g>
		<g>
			<path class="st3" d="M32.2,106.98c29.27-7.98,51.82-8.2,79.52-7.47c20.42,0.53,42.11,4.89,55.23,8.66
				c-3.52-2.05-15.3-7.54-37.16-10.41c0.58-0.12,1.08-0.27,1.47-0.44c2.84-1.3,7.13-6.17,6.38-15.3c-0.13-1.55-0.39-2.96-1.14-4.32
				c0.35,1.44,0.55,2.98,0.55,4.59c0,7.57-4.19,13.71-9.37,13.71c-5.17,0-9.37-6.14-9.37-13.71c0-5.8,2.46-10.74,5.93-12.74h-7.09
				c0,0,0.4-0.77,1.44-1.28c3.91-0.44,9.77,0.35,9.77,0.35l-0.02,0.01c2.11,0.22,4.02,1.45,5.51,3.38c0.46-0.02,0.97-0.03,1.62-0.01
				c-0.88-2.13-1.77-3.28-2.25-3.82c-2.24-1.15-6.56-1.9-10.49-2.24c0,0-0.36-1.27-0.57-1.72c1.48,0.06,6.68,0.79,11.06,1.87
				c-0.84-0.58-1.89-1.05-3.03-1.45c-0.15-2.43-0.42-6.55-0.97-8.34c-0.03,2.04-0.19,6.84-0.23,7.96c-0.22-0.06-0.44-0.13-0.66-0.18
				c-0.1-1.38-0.59-7.84-0.66-8.46c-0.07-0.69-0.43-0.78-1.33-1.11c-0.9-0.33-9.04-2.64-9.04-2.64l-0.15,10.45
				c0.39-1.08,0.99-6.51,0.99-6.51c2.37-0.42,8.44,0,8.44,0l0.03,0.38c-2.06-0.06-6.97,0.71-8.01,1.15c2.79-0.02,6.81-0.01,8.1,0
				l0.49,6.47c-2.36-0.55-4.65-0.85-5.94-1.05c0,0-2.99,0.3-5.86,0.57c0,0,0-9.16,0.12-11.88c-3.69-1.3-7.77-1.21-12.24-0.94
				c0,0,0.27-0.73,0.48-1.27c1.72-0.27,6.62-0.67,10.73,0.27c4.11,0.94,15.48,4.35,15.48,4.35s-0.09-0.42-0.21-0.63
				c-2.12-0.88-12.33-4.32-16.53-5.41c0,0,0.42-0.79,0.71-1.06c0.8,0.06,10.87,2.84,14.16,3.78c-3.2-1.69-12.91-4.59-13.6-4.84
				c-2.84,0.06-11.27,1-13.78,1.75c-0.48,0.88-0.85,2.24-0.94,2.54c0.63,0.18,2.36,0.54,2.36,0.54c-0.57,2.63-1.87,9.67-1.87,9.67
				c3.02,0.33,10.25,1.96,12.73,3.2c-0.93-0.04-8.97-1.3-18.06-2.39l0.38-16.5c-0.18-0.12-0.42-0.21-0.68-0.26
				c-0.05,2.51-0.29,13.67-0.5,15.68c-0.25-3.36-0.4-13.25-0.47-15.74c-0.41,0.03-0.8,0.12-1.04,0.32
				c-0.24,1.69-0.34,13.25-0.36,16.19c-1.86-0.21-3.74-0.41-5.58-0.59l0.16-4.62c0.91,0.01,1.68-0.12,1.79-0.85
				c0.02-0.15,0.03-0.28,0.04-0.4c-0.86-0.59-3.03-1.39-4.63-1.4c1.22-0.84,3.35-0.49,4.71,0.19c0-0.06,0-0.12,0-0.19
				c0-0.66-1.45-1.41-2.6-1.53c-1.15-0.12-3.08,0.12-3.17,1.15c-0.09,1.03-0.18,1.6,0.15,2.03c0.22,0.29,0.8,0.59,1.54,0.78
				l-0.16,4.64c-6.64-0.57-12.62-0.78-15.55-0.07c-0.31,3.89,0.06,11.23,0.23,14.17c-4.43,1.53-7.87,6.4-7.87,12.1
				c0,4.79,1.9,8.95,5.26,11.06C53.4,98.45,38.55,103,32.2,106.98z M62.65,85.28c0,0,1.18-0.03,1.25,0v0.68h-1.25V85.28z
				 M62.94,82.36l1.63-0.07l-0.21,0.84c0,0-1.56,0.01-1.57,0C62.78,83.11,62.94,82.36,62.94,82.36z M65.84,79.61
				c-0.03-0.04-0.49,0.81-0.49,0.81h-1.68l0.33-0.75L65.84,79.61z M67.92,76.64l-0.72,0.85h-2.01l0.99-0.91L67.92,76.64z
				 M71.66,62.1c0,0-0.33,6.23-0.54,10.19c-0.42-1.5-0.79-10.04-0.79-10.04L71.66,62.1z M73.98,61.98c0,0-0.33,6.23-0.54,10.19
				c-0.42-1.5-0.79-10.04-0.79-10.04L73.98,61.98z M76.31,61.8c0,0-0.33,6.23-0.54,10.19c-0.42-1.5-0.79-10.04-0.79-10.04
				L76.31,61.8z M109.74,60l1.21-4.46c0.64-0.04,1.26-0.06,1.83-0.05c-0.03,0.51-0.06,1.56,0.12,1.83
				c-1.41,0.06-1.86,1.98-1.77,2.88C110.75,60.14,110.27,60.07,109.74,60z M108.42,55.76c0.5,0.82-0.12,3.05-0.44,4
				c-2.68-0.35-5.71-0.7-5.71-0.7c-0.03-0.15,0.51-2.32,0.51-2.32C104.39,56.35,106.43,55.99,108.42,55.76z M113.14,51.86
				l-0.18,1.44c-1.38-0.27-5.85-0.72-9.34-0.46C105.12,52.02,109.45,51.62,113.14,51.86z M115.29,72.38l0.7-1.15c0,0,4.23,0,4.37,0
				l-0.94,1.15H115.29z M117.46,75.99h-3.9l0.42-1.14h3.85L117.46,75.99z M112.61,79.73l0.17-1.03h3.89l-0.27,1.03H112.61z
				 M116.41,83.36v0.97h-3.53v-0.97C112.88,83.36,116.3,83.36,116.41,83.36z M111.04,96.18c1.31-0.76,2.24-1.64,3-3.04
				c1.06,1.76,1.89,2.58,2.69,3.34C114.65,96.34,113.27,96.28,111.04,96.18z M103.75,86.54c1.39,1.62,2.78,2.88,4.59,2.82
				c1.54-0.05,2.42-1.83,2.65-2.37c0.32,0.89,0.67,1.71,1.04,2.46c-0.89,1.67-2.33,1.72-3.17,1.69
				C107.99,91.12,104.63,90.28,103.75,86.54z M103.75,82.5l0.45-3.02c0,0,3.78,0.42,3.75,0.33c-0.03-0.09-0.79,2.69-0.79,2.69
				H103.75z M98.27,95.98c0.85-0.82,1.65-1.77,2.21-2.68c0,0,1.21,1.69,2.68,2.68c-1.27-0.01-2.55-0.02-3.86-0.01
				C98.95,95.97,98.61,95.98,98.27,95.98z M97.68,74.74v-0.85c0,0,6.98,0.79,8.18,1C102.76,75.07,97.68,74.74,97.68,74.74z
				 M82.06,85.2c0-6.36,3.79-11.56,8.57-11.99c-1.35-0.73-5.22-1.14-7.16-0.04c-1.92,1.09-3.48,3.38-4.48,6.03l-9.06-0.56
				c0.24-0.39,0.63-0.6,0.63-0.6l7.41-0.27c-1.23-0.53-6.87-0.76-8.75-0.83c0.01-0.01,0.01-0.01,0.02-0.02l-0.01,0v-1.63
				c0,0,5.77,0,8.25-0.06c0.12-1.27,0.18-11.85,0.45-13.81c10.85,0.09,32.8,4.11,38.21,5.26c-4.18,3.1-5.7,7.77-6.12,11.62
				l-7.45-0.69l-0.3-1.21c0,0,2.75-0.15,5.31,0.04c0,0,0.51-6.97,0.51-8.38c-2.26-0.52-18.1-2.78-28.22-3.52l-0.04,0.43
				c0,0,21.81,3.32,26.22,4.17l-0.04,0.67c0,0-6.23-0.78-9.38-0.89l-0.07,0.82c0,0,8.01,1.49,9.43,2.09l-9.46-0.87l-0.07,0.82
				c0,0,7.93,1.17,9.27,1.73L93,72.83l-0.08,0.54c4.29,1.02,7.55,5.92,7.55,11.83c0,6.65-4.12,12.03-9.21,12.03
				C86.18,97.23,82.06,91.84,82.06,85.2z M71.33,83.23c0.93,0.13,5.19,0.13,6.58,0.12c-0.08,0.55-0.14,1.1-0.17,1.64
				c-1.46-0.18-7.15-0.66-7.15-0.66S70.22,83.08,71.33,83.23z M83.91,75.68l-0.44,0.76l-2.03-0.06l0.53-0.71H83.91z M83.28,74.18
				l0.79-0.62c0,0,2.07,0.05,2.16,0.05l-0.76,0.63L83.28,74.18z M82.17,78.42l-0.25,0.68L80.13,79l0.36-0.71
				C80.49,78.29,82.09,78.39,82.17,78.42z M81.17,81.65L81,82.33h-1.62l0.13-0.68C79.52,81.65,81.08,81.64,81.17,81.65z M80.5,85.96
				l-1.47-0.07l-0.06-0.75h1.53V85.96z M78.22,96.37c0.72-0.58,1.38-1.27,1.95-2.04c0.42,0.68,0.86,1.33,1.36,1.91
				C80.4,96.28,79.3,96.32,78.22,96.37z M65.41,85.64c0-2.43,0.68-4.65,1.79-6.41c0.86-0.04,1.61,0.04,1.61,0.04
				c-1.18,2.6-1.04,4.65-0.89,5.58c0.35,2.21,2.05,4.88,4.74,4.91c2.69,0.03,3.72-0.9,4.62-2.04c-0.03,1.49-1.36,4.27-4.2,4.12
				c-1.06-0.06-2.8-0.65-3.64-1.46c0.85,2.14,2.74,2.98,4.55,2.97c1.27,0,3.18-0.87,4.48-2.78c0.25,0.81,0.58,1.59,0.94,2.35
				c-1.48,1.87-3.52,3.05-5.79,3.05C69.09,95.97,65.41,91.35,65.41,85.64z"/>
			<path class="st3" d="M86.17,85.62c0,1.06,0.14,2.07,0.39,3c-0.26-3.56,1.11-8.7,4.13-8.25c1.81,0.27,3.38,2.54,3.64,5.65
				c0.17,1.92-0.26,4.03-1.77,5.81c4.56-3.28,2.25-9.88,1.29-11.48c2.59,1.85,3.67,10.11-1.33,13.17c2.52-0.67,4.44-3.95,4.44-7.9
				c0-4.43-2.41-8.03-5.39-8.03C88.58,77.59,86.17,81.19,86.17,85.62z"/>
			<path class="st3" d="M91.39,85.22c1.06,1.49,0.16,3.27-1.03,3.23c-1.45-0.05-1.92-2.24-1.11-3.23c0.05,0.88,0.39,1.96,1.08,2.08
				C90.82,87.39,91.43,86.82,91.39,85.22z"/>
			<path class="st3" d="M121.66,82.57c0,1.2,0.16,2.34,0.45,3.39c-0.3-4.03,1.28-9.85,4.76-9.35c2.09,0.31,3.89,2.88,4.2,6.4
				c0.19,2.18-0.3,4.57-2.04,6.59c5.26-3.72,2.59-11.2,1.48-13c2.99,2.1,4.23,11.46-1.54,14.91c2.91-0.76,5.11-4.48,5.11-8.95
				c0-5.02-2.78-9.09-6.21-9.09C124.44,73.48,121.66,77.55,121.66,82.57z"/>
			<path class="st3" d="M127.68,82.11c1.22,1.69,0.18,3.71-1.19,3.66c-1.67-0.06-2.21-2.54-1.27-3.66c0.06,1,0.45,2.22,1.24,2.36
				C127.02,84.57,127.72,83.92,127.68,82.11z"/>
		</g>
	</g>
	<g id="Farmers_Feeding_Utah">
		<g>
			<g>
				<path class="st3" d="M187.63,27.32v5.99h8.08v4.23h-8.08v9.2h-5.52V23.11h15.22v4.22H187.63z"/>
				<path class="st3" d="M197.46,32.25c1.02-0.9,2.14-1.57,3.38-2c1.24-0.44,2.57-0.66,3.98-0.66c1.02,0,1.93,0.17,2.75,0.49
					c0.82,0.33,1.51,0.79,2.08,1.38c0.57,0.59,1,1.29,1.31,2.1s0.45,1.7,0.45,2.66v10.51h-2.3c-0.48,0-0.83-0.06-1.08-0.19
					c-0.24-0.13-0.45-0.4-0.61-0.81l-0.36-0.92c-0.42,0.36-0.83,0.67-1.22,0.94c-0.39,0.27-0.79,0.5-1.21,0.69
					c-0.42,0.19-0.86,0.33-1.33,0.42c-0.47,0.09-0.99,0.14-1.57,0.14c-0.77,0-1.47-0.1-2.09-0.3c-0.63-0.2-1.16-0.49-1.6-0.88
					c-0.44-0.39-0.78-0.87-1.01-1.45c-0.24-0.58-0.36-1.25-0.36-2c0-0.61,0.15-1.22,0.45-1.84c0.3-0.62,0.83-1.19,1.57-1.7
					s1.75-0.94,3.02-1.29s2.86-0.54,4.79-0.58v-0.71c0-0.98-0.2-1.7-0.61-2.13c-0.41-0.44-0.98-0.66-1.73-0.66
					c-0.59,0-1.08,0.06-1.46,0.19s-0.72,0.28-1.01,0.44c-0.3,0.16-0.59,0.31-0.87,0.44s-0.62,0.19-1.01,0.19
					c-0.35,0-0.64-0.09-0.88-0.26c-0.24-0.17-0.43-0.38-0.58-0.62L197.46,32.25z M206.52,39.9c-1.01,0.04-1.83,0.13-2.48,0.26
					c-0.65,0.13-1.16,0.29-1.54,0.49c-0.38,0.19-0.64,0.42-0.79,0.67c-0.15,0.25-0.22,0.52-0.22,0.81c0,0.57,0.16,0.98,0.47,1.21
					c0.31,0.23,0.77,0.35,1.38,0.35c0.65,0,1.22-0.11,1.7-0.34c0.49-0.23,0.98-0.59,1.48-1.1V39.9z"/>
				<path class="st3" d="M219.33,32.51c0.52-0.91,1.12-1.62,1.79-2.14s1.45-0.78,2.33-0.78c0.76,0,1.37,0.18,1.85,0.54l-0.32,3.7
					c-0.05,0.24-0.14,0.4-0.27,0.49c-0.12,0.09-0.29,0.13-0.51,0.13c-0.09,0-0.2-0.01-0.34-0.02s-0.29-0.02-0.44-0.04
					c-0.15-0.02-0.31-0.03-0.46-0.05c-0.16-0.02-0.3-0.02-0.43-0.02c-0.74,0-1.32,0.19-1.76,0.58c-0.44,0.39-0.81,0.93-1.11,1.62
					v10.22h-5.03V29.92h2.99c0.25,0,0.46,0.02,0.62,0.06c0.17,0.04,0.31,0.11,0.42,0.2c0.11,0.09,0.2,0.21,0.26,0.37
					s0.11,0.34,0.15,0.55L219.33,32.51z"/>
				<path class="st3" d="M227,46.74V29.92h3.12c0.63,0,1.04,0.28,1.23,0.84l0.28,0.91c0.28-0.29,0.57-0.56,0.88-0.8
					c0.3-0.24,0.63-0.45,0.98-0.63s0.73-0.32,1.14-0.42c0.41-0.1,0.85-0.15,1.34-0.15c1.02,0,1.86,0.26,2.52,0.79
					s1.17,1.22,1.52,2.1c0.28-0.52,0.62-0.96,1.03-1.33c0.41-0.37,0.84-0.67,1.31-0.89s0.97-0.4,1.49-0.5s1.05-0.16,1.57-0.16
					c0.96,0,1.82,0.14,2.56,0.43s1.37,0.7,1.87,1.25c0.5,0.55,0.88,1.22,1.14,2.01c0.26,0.79,0.39,1.69,0.39,2.7v10.69h-5.03V36.05
					c0-1.74-0.75-2.61-2.24-2.61c-0.68,0-1.25,0.22-1.7,0.67c-0.45,0.45-0.67,1.1-0.67,1.94v10.69h-5.03V36.05
					c0-0.96-0.19-1.64-0.57-2.03c-0.38-0.39-0.94-0.58-1.67-0.58c-0.45,0-0.88,0.1-1.29,0.31s-0.79,0.48-1.14,0.83v12.17H227z"/>
				<path class="st3" d="M258.75,39.23c0.16,1.41,0.59,2.43,1.28,3.06c0.69,0.63,1.58,0.95,2.68,0.95c0.58,0,1.09-0.07,1.51-0.21
					s0.8-0.3,1.13-0.47c0.33-0.17,0.63-0.33,0.91-0.47c0.28-0.14,0.56-0.21,0.87-0.21c0.4,0,0.7,0.15,0.91,0.44l1.46,1.8
					c-0.52,0.59-1.08,1.08-1.68,1.45c-0.6,0.37-1.22,0.67-1.85,0.88s-1.27,0.36-1.9,0.44c-0.63,0.08-1.24,0.12-1.81,0.12
					c-1.18,0-2.28-0.19-3.32-0.58s-1.94-0.95-2.71-1.71c-0.77-0.76-1.38-1.7-1.83-2.82c-0.45-1.12-0.67-2.43-0.67-3.93
					c0-1.12,0.19-2.19,0.58-3.2s0.94-1.89,1.66-2.64c0.72-0.76,1.59-1.36,2.61-1.8c1.02-0.44,2.18-0.67,3.46-0.67
					c1.11,0,2.13,0.17,3.06,0.52s1.72,0.85,2.38,1.51c0.67,0.66,1.18,1.47,1.56,2.43s0.56,2.04,0.56,3.25
					c0,0.38-0.02,0.69-0.05,0.92c-0.03,0.24-0.09,0.43-0.18,0.57c-0.09,0.14-0.2,0.24-0.35,0.29c-0.15,0.05-0.33,0.08-0.56,0.08
					H258.75z M265.08,36.31c0-0.4-0.05-0.79-0.15-1.17c-0.1-0.38-0.27-0.72-0.5-1.01c-0.23-0.3-0.54-0.54-0.92-0.72
					c-0.38-0.18-0.84-0.28-1.38-0.28c-0.95,0-1.7,0.27-2.24,0.82c-0.54,0.55-0.9,1.33-1.07,2.36H265.08z"/>
				<path class="st3" d="M276.8,32.51c0.52-0.91,1.12-1.62,1.79-2.14s1.45-0.78,2.33-0.78c0.76,0,1.37,0.18,1.85,0.54l-0.32,3.7
					c-0.05,0.24-0.14,0.4-0.27,0.49c-0.12,0.09-0.29,0.13-0.51,0.13c-0.09,0-0.2-0.01-0.34-0.02s-0.29-0.02-0.44-0.04
					c-0.15-0.02-0.31-0.03-0.46-0.05c-0.16-0.02-0.3-0.02-0.43-0.02c-0.74,0-1.32,0.19-1.76,0.58c-0.44,0.39-0.81,0.93-1.11,1.62
					v10.22h-5.03V29.92h2.99c0.25,0,0.46,0.02,0.62,0.06c0.17,0.04,0.31,0.11,0.42,0.2c0.11,0.09,0.2,0.21,0.26,0.37
					s0.11,0.34,0.15,0.55L276.8,32.51z"/>
				<path class="st3" d="M295.17,33.6c-0.13,0.21-0.27,0.35-0.41,0.44c-0.15,0.09-0.33,0.13-0.56,0.13c-0.24,0-0.48-0.05-0.71-0.15
					c-0.24-0.1-0.49-0.21-0.77-0.33c-0.28-0.12-0.59-0.23-0.93-0.33c-0.35-0.1-0.74-0.15-1.18-0.15c-0.64,0-1.13,0.12-1.47,0.37
					c-0.34,0.24-0.51,0.58-0.51,1.01c0,0.31,0.11,0.57,0.33,0.78c0.22,0.21,0.52,0.39,0.88,0.54c0.37,0.16,0.78,0.31,1.25,0.45
					c0.46,0.14,0.94,0.3,1.43,0.47c0.49,0.17,0.96,0.38,1.43,0.61c0.46,0.23,0.88,0.52,1.25,0.86c0.37,0.34,0.66,0.75,0.88,1.24
					s0.33,1.07,0.33,1.75c0,0.83-0.15,1.6-0.46,2.3s-0.75,1.31-1.35,1.82c-0.6,0.51-1.34,0.9-2.22,1.18
					c-0.88,0.28-1.9,0.42-3.04,0.42c-0.57,0-1.15-0.05-1.72-0.16s-1.13-0.25-1.66-0.44c-0.54-0.18-1.03-0.4-1.48-0.66
					c-0.46-0.25-0.84-0.53-1.17-0.82l1.17-1.85c0.13-0.22,0.29-0.39,0.49-0.51c0.2-0.12,0.46-0.19,0.77-0.19
					c0.29,0,0.55,0.06,0.79,0.19s0.48,0.27,0.75,0.42s0.59,0.29,0.95,0.42c0.36,0.13,0.82,0.19,1.37,0.19
					c0.39,0,0.72-0.04,0.99-0.12s0.49-0.19,0.65-0.33c0.16-0.14,0.28-0.3,0.36-0.47c0.08-0.17,0.11-0.35,0.11-0.54
					c0-0.33-0.11-0.61-0.34-0.83c-0.23-0.22-0.52-0.4-0.89-0.56c-0.37-0.16-0.79-0.3-1.26-0.44c-0.47-0.13-0.95-0.29-1.44-0.46
					c-0.49-0.17-0.96-0.38-1.44-0.62c-0.47-0.24-0.89-0.55-1.26-0.92c-0.37-0.37-0.67-0.83-0.89-1.37c-0.23-0.54-0.34-1.2-0.34-1.96
					c0-0.71,0.14-1.39,0.41-2.04c0.28-0.64,0.69-1.21,1.24-1.7c0.55-0.49,1.24-0.87,2.08-1.16s1.81-0.43,2.92-0.43
					c0.61,0,1.19,0.05,1.76,0.16c0.57,0.11,1.1,0.26,1.6,0.45c0.5,0.19,0.95,0.42,1.36,0.69c0.41,0.27,0.77,0.55,1.09,0.87
					L295.17,33.6z"/>
			</g>
			<g>
				<path class="st1" d="M186.92,56.93v5.07h6.84v3.58h-6.84v7.79h-4.67V53.36h12.88v3.57H186.92z"/>
				<path class="st1" d="M202.47,56.93v4.67h6.29v3.43h-6.29v4.77h8.21v3.57h-12.88V53.36h12.88v3.57H202.47z"/>
				<path class="st1" d="M218.21,56.93v4.67h6.29v3.43h-6.29v4.77h8.21v3.57h-12.88V53.36h12.88v3.57H218.21z"/>
				<path class="st1" d="M247.43,63.35c0,1.45-0.25,2.78-0.75,4c-0.5,1.22-1.2,2.28-2.11,3.17s-2,1.59-3.28,2.09
					c-1.28,0.5-2.69,0.75-4.25,0.75h-7.77V53.36h7.77c1.56,0,2.97,0.25,4.25,0.76s2.37,1.2,3.28,2.09c0.91,0.89,1.61,1.94,2.11,3.17
					C247.18,60.59,247.43,61.92,247.43,63.35z M242.68,63.35c0-0.99-0.13-1.88-0.38-2.68c-0.26-0.8-0.62-1.47-1.11-2.03
					s-1.07-0.98-1.76-1.28c-0.7-0.3-1.49-0.45-2.38-0.45h-3.1v12.87h3.1c0.89,0,1.68-0.15,2.38-0.45c0.7-0.3,1.28-0.72,1.76-1.28
					c0.48-0.55,0.85-1.23,1.11-2.03C242.55,65.25,242.68,64.35,242.68,63.35z"/>
				<path class="st1" d="M254.85,73.37h-4.67V53.36h4.67V73.37z"/>
				<path class="st1" d="M276.19,53.36v20.01h-2.42c-0.36,0-0.66-0.06-0.9-0.17c-0.24-0.11-0.48-0.31-0.72-0.6l-9.43-11.93
					c0.04,0.36,0.06,0.7,0.08,1.04c0.01,0.33,0.02,0.65,0.02,0.94v10.73h-4.09V53.36h2.44c0.2,0,0.37,0.01,0.51,0.03
					c0.14,0.02,0.26,0.05,0.37,0.1c0.11,0.05,0.21,0.12,0.32,0.21c0.1,0.09,0.21,0.22,0.34,0.37l9.52,12.02
					c-0.05-0.38-0.08-0.76-0.1-1.12c-0.02-0.36-0.03-0.7-0.03-1.02V53.36H276.19z"/>
				<path class="st1" d="M289.67,63h7.11v8.45c-1.03,0.75-2.12,1.3-3.27,1.63c-1.16,0.34-2.37,0.51-3.63,0.51
					c-1.65,0-3.15-0.26-4.5-0.78s-2.51-1.23-3.47-2.14c-0.96-0.91-1.7-1.99-2.22-3.24c-0.52-1.25-0.78-2.61-0.78-4.07
					c0-1.49,0.25-2.86,0.74-4.11s1.2-2.33,2.12-3.23c0.92-0.91,2.03-1.61,3.34-2.11s2.76-0.76,4.37-0.76c0.83,0,1.62,0.07,2.35,0.21
					s1.41,0.33,2.03,0.56c0.62,0.24,1.18,0.52,1.7,0.85s0.97,0.69,1.37,1.07l-1.35,2.05c-0.21,0.32-0.48,0.52-0.82,0.59
					s-0.69-0.01-1.08-0.25c-0.37-0.22-0.71-0.41-1.04-0.57c-0.33-0.16-0.66-0.29-1-0.39c-0.34-0.1-0.7-0.17-1.07-0.22
					c-0.38-0.05-0.8-0.07-1.26-0.07c-0.87,0-1.65,0.15-2.35,0.46c-0.7,0.31-1.29,0.74-1.78,1.3c-0.49,0.56-0.87,1.23-1.13,2.01
					s-0.4,1.65-0.4,2.62c0,1.06,0.15,2.01,0.44,2.83s0.71,1.52,1.24,2.09c0.54,0.57,1.18,1,1.92,1.3s1.57,0.45,2.48,0.45
					c0.56,0,1.06-0.06,1.52-0.17s0.9-0.26,1.33-0.44v-3.03h-1.98c-0.29,0-0.52-0.08-0.69-0.23c-0.16-0.16-0.25-0.35-0.25-0.59V63z"
					/>
			</g>
			<g>
				<path class="st3" d="M195.32,105.77c0.99,0,1.88-0.16,2.66-0.49c0.78-0.33,1.44-0.8,1.98-1.41c0.54-0.61,0.95-1.36,1.24-2.24
					s0.43-1.88,0.43-3.01V79.75h7.39v18.87c0,1.95-0.32,3.75-0.95,5.38c-0.63,1.63-1.54,3.04-2.72,4.22s-2.62,2.1-4.31,2.75
					c-1.69,0.66-3.59,0.98-5.71,0.98c-2.13,0-4.04-0.33-5.73-0.98c-1.69-0.66-3.13-1.57-4.31-2.75c-1.18-1.18-2.08-2.59-2.71-4.22
					c-0.63-1.63-0.94-3.42-0.94-5.38V79.75h7.39V98.6c0,1.12,0.14,2.12,0.43,3.01c0.29,0.88,0.7,1.63,1.24,2.25
					c0.54,0.62,1.2,1.09,1.98,1.42C193.45,105.61,194.33,105.77,195.32,105.77z"/>
				<path class="st3" d="M237.67,85.62h-8.96v26h-7.39v-26h-8.96v-5.86h25.32V85.62z"/>
				<path class="st3" d="M266.88,111.61h-5.73c-0.64,0-1.16-0.15-1.55-0.45s-0.69-0.68-0.9-1.15l-1.88-5.55h-12.11l-1.88,5.55
					c-0.16,0.41-0.45,0.78-0.86,1.1c-0.42,0.33-0.93,0.49-1.54,0.49h-5.77l12.33-31.86h7.56L266.88,111.61z M255.14,99.43
					l-2.95-8.72c-0.22-0.55-0.45-1.21-0.7-1.96c-0.25-0.75-0.5-1.56-0.74-2.44c-0.22,0.89-0.45,1.71-0.7,2.47s-0.48,1.41-0.7,1.97
					l-2.93,8.68H255.14z"/>
				<path class="st3" d="M297.2,79.75v31.86h-7.43V98.14h-12.94v13.47h-7.43V79.75h7.43v13.32h12.94V79.75H297.2z"/>
			</g>
		</g>
	</g>
</g>
</svg>
