<svg xmlns="http://www.w3.org/2000/svg" width="28.061" height="27.998" viewBox="0 0 28.061 27.998">
  <path id="Path_3713" data-name="Path 3713" d="M27.432,22.538,23.1,18.2a2.26,2.26,0,0,0-3.186.06l-2.183,2.183-.431-.24a21.727,21.727,0,0,1-5.251-3.8,21.848,21.848,0,0,1-3.806-5.261c-.081-.146-.158-.287-.235-.421L9.471,9.264l.72-.721a2.258,2.258,0,0,0,.058-3.186L5.916,1.022a2.257,2.257,0,0,0-3.186.06L1.509,2.311l.033.033A7.063,7.063,0,0,0,.536,4.119a7.36,7.36,0,0,0-.448,1.8C-.484,10.664,1.684,15,7.567,20.882,15.7,29.014,22.253,28.4,22.535,28.37a7.322,7.322,0,0,0,1.806-.454,7.039,7.039,0,0,0,1.769-1l.027.024,1.237-1.212A2.262,2.262,0,0,0,27.432,22.538Z" transform="translate(0 -0.394)" fill="#00a685"/>
</svg>
