<svg xmlns="http://www.w3.org/2000/svg" width="37.5" height="28.125" viewBox="0 0 37.5 28.125">
  <path id="Path_3711" data-name="Path 3711" d="M37.5,84.089a4.646,4.646,0,0,1-.6,2.255L25.058,73.1,36.77,62.849a4.653,4.653,0,0,1,.73,2.49ZM18.75,75.5l16.3-14.259a4.629,4.629,0,0,0-2.234-.591H4.687a4.613,4.613,0,0,0-2.233.591Zm4.543-.863-3.772,3.3a1.176,1.176,0,0,1-1.542,0l-3.773-3.3L2.216,88.055a4.631,4.631,0,0,0,2.472.721H32.813a4.631,4.631,0,0,0,2.472-.721ZM.73,62.849A4.654,4.654,0,0,0,0,65.339v18.75a4.631,4.631,0,0,0,.6,2.255l11.839-13.25Z" transform="translate(0 -60.651)" fill="#00a685"/>
</svg>
